<?xml version="1.0" encoding="UTF-8" standalone="yes"?>
<svg xmlns="http://www.w3.org/2000/svg" xmlns:xlink="http://www.w3.org/1999/xlink" width="453.436676pt" height="470.424011pt" version="1.1" viewBox="-616.429749 632.787964 453.436676 470.424072">
  <!--
	Exported with Concepts: Smarter Sketching
	Version: 890 on iOS 14.0
	https://concepts.app/
	-->
  <title>Untitled</title>
  <desc>Drawing exported from Concepts: Smarter Sketching</desc>
  <g id="Pen" opacity="1.000">
    <path id="STROKE_dde234f6-8d84-4d48-8425-d929e09d0584" opacity="1.000" fill="none" stroke="#000000" stroke-width="10.200" stroke-opacity="1.000" stroke-linecap="round" stroke-linejoin="round" d="M -519.615 828.694 L -519.615 818.000 L -476.314 793.000 L -433.013 818.000 L -433.013 868.000 L -476.314 893.000 L -519.615 868.000 L -519.615 818.000 "></path>
    <path id="STROKE_9ebe02f5-998e-492f-be5f-bd46ad6dc694" opacity="1.000" fill="none" stroke="#000000" stroke-width="10.200" stroke-opacity="1.000" stroke-linecap="round" stroke-linejoin="round" d="M -346.410 818.000 L -346.410 868.000 L -303.109 893.000 L -259.808 868.000 L -259.808 818.000 L -303.109 793.000 L -346.410 818.000 "></path>
    <path id="STROKE_d4e9e091-6a31-4ace-99a8-acf4552a7253" opacity="1.000" fill="none" stroke="#171612" stroke-width="10.200" stroke-opacity="1.000" stroke-linecap="round" stroke-linejoin="round" d="M -433.013 968.000 L -389.711 943.000 L -346.410 968.000 L -389.711 993.000 L -433.013 968.000 "></path>
    <path id="STROKE_c8f82f1e-4a62-4b36-85bb-05a28891b3c1" opacity="1.000" fill="none" stroke="#171612" stroke-width="10.200" stroke-opacity="1.000" stroke-linecap="round" stroke-linejoin="round" d="M -389.711 993.000 L -389.711 1043.000 "></path>
    <path id="STROKE_dd936090-9ef8-4814-9cf6-4df59303f7d6" opacity="1.000" fill="none" stroke="#171612" stroke-width="10.200" stroke-opacity="1.000" stroke-linecap="round" stroke-linejoin="round" d="M -433.013 1018.000 L -389.711 1043.000 "></path>
    <path id="STROKE_baf7fe0c-f9f1-44ab-9613-c6db67948b7e" opacity="1.000" fill="none" stroke="#171612" stroke-width="10.200" stroke-opacity="1.000" stroke-linecap="round" stroke-linejoin="round" d="M -389.711 1043.000 L -346.410 1018.000 "></path>
    <path id="STROKE_c72f08a6-681d-4b2b-8f7e-2aec9c8162b2" opacity="1.000" fill="none" stroke="#ec9eb4" stroke-width="10.200" stroke-opacity="1.000" stroke-linecap="round" stroke-linejoin="round" d="M -529.630 923.782 L -519.615 918.000 L -476.314 943.000 L -519.615 968.000 L -562.917 943.000 L -525.828 921.587 "></path>
    <path id="STROKE_d0e10a00-f972-4425-8289-cc2cb4e456e0" opacity="1.000" fill="none" stroke="#ec9eb4" stroke-width="10.200" stroke-opacity="1.000" stroke-linecap="round" stroke-linejoin="round" d="M -303.109 943.000 L -259.808 918.000 L -216.506 943.000 L -259.808 968.000 L -303.109 943.000 "></path>
    <path id="STROKE_a37145be-e376-40f5-ac8f-ac02b148baaa" opacity="1.000" fill="none" stroke="#ec9eb4" stroke-width="10.200" stroke-opacity="1.000" stroke-linecap="round" stroke-linejoin="round" d="M -519.955 926.403 Q -518.676 926.175 -522.578 955.062 Q -522.642 955.062 -522.669 955.062 Q -523.240 955.218 -522.591 948.782 Q -521.942 942.346 -520.887 936.650 Q -519.831 930.953 -519.627 926.072 Q -519.962 926.002 -522.797 955.660 Q -522.785 954.969 -522.757 949.763 Q -522.728 944.557 -523.307 931.290 L -523.343 931.290 Q -523.107 933.303 -525.284 950.328 Q -526.375 950.393 -532.143 934.408 Q -532.497 934.524 -531.446 934.344 Q -530.395 934.163 -529.565 934.351 Q -528.735 934.538 -528.342 935.827 Q -527.949 937.116 -528.007 937.846 Q -528.065 938.577 -528.308 939.215 Q -528.551 939.854 -528.784 940.203 Q -529.017 940.552 -530.084 941.794 Q -531.150 943.037 -532.500 943.161 Q -533.849 943.286 -534.492 943.420 Q -535.135 943.555 -535.712 943.096 Q -536.288 942.637 -536.388 942.304 Q -536.488 941.970 -536.472 941.993 Q -536.455 942.016 -536.851 940.701 Q -537.247 939.385 -527.042 935.197 Q -527.197 934.965 -530.263 936.903 Q -533.330 938.842 -536.618 939.457 Q -539.906 940.072 -541.559 939.902 Q -543.213 939.732 -544.607 939.325 Q -546.000 938.919 -545.953 937.157 Q -546.133 937.383 -530.558 930.705 Q -531.005 931.480 -533.296 933.555 Q -535.586 935.631 -537.961 936.656 Q -540.335 937.682 -541.519 937.818 Q -542.703 937.954 -543.775 937.966 Q -544.847 937.978 -548.003 938.047 Q -548.066 938.181 -548.394 938.773 L -548.431 938.773 Q -548.802 939.254 -548.823 939.212 Q -550.057 939.746 -549.788 939.606 Q -549.016 939.625 -551.947 939.765 Q -551.820 940.137 -547.845 940.433 Q -543.869 940.728 -540.645 941.411 Q -537.422 942.094 -535.131 943.373 Q -535.131 943.443 -535.158 943.609 Q -536.942 943.555 -541.412 943.792 Q -545.883 944.029 -548.382 943.995 Q -550.881 943.961 -552.090 943.635 Q -553.299 943.309 -553.141 943.169 Q -552.983 943.029 -553.035 943.015 Q -553.087 943.001 -553.070 943.137 Q -553.053 943.273 -553.031 942.521 Q -553.126 942.062 -549.390 942.398 Q -545.654 942.734 -543.453 943.146 Q -541.252 943.557 -539.125 944.118 Q -536.998 944.679 -535.515 945.429 Q -534.032 946.179 -532.799 948.572 Q -534.103 948.572 -533.901 948.572 Q -535.059 948.754 -544.532 947.388 Q -544.359 947.132 -542.754 947.637 Q -541.149 948.142 -537.737 949.854 Q -534.326 951.566 -532.288 952.646 Q -530.250 953.726 -527.570 953.942 Q -527.131 954.019 -528.285 953.745 Q -529.438 953.471 -534.530 949.501 Q -534.649 949.751 -532.623 952.385 Q -530.597 955.019 -528.498 956.903 Q -526.400 958.787 -523.234 958.930 Q -521.478 958.576 -521.685 938.646 Q -521.749 938.461 -521.029 939.917 Q -520.309 941.372 -519.711 944.519 Q -519.113 947.666 -518.697 953.535 Q -519.598 953.566 -520.267 948.758 Q -520.936 943.950 -520.971 940.337 Q -521.006 936.725 -519.953 933.463 Q -518.899 930.200 -517.085 927.727 Q -515.889 928.221 -515.705 935.835 Q -515.520 943.450 -517.213 950.990 Q -517.590 951.767 -518.565 949.859 Q -519.540 947.950 -519.418 944.274 Q -519.296 940.598 -518.644 937.961 Q -517.991 935.323 -517.099 933.789 Q -516.206 932.256 -515.749 932.040 Q -515.292 931.824 -515.015 931.784 Q -514.738 931.745 -513.680 932.346 Q -512.622 932.947 -511.547 935.818 Q -510.473 938.689 -510.347 941.782 Q -510.222 944.876 -510.611 947.386 Q -511.001 949.896 -512.011 951.779 Q -513.022 953.662 -514.268 955.195 Q -515.514 956.728 -517.707 957.112 Q -519.901 957.497 -521.140 956.298 Q -522.380 955.099 -523.439 952.321 Q -524.497 949.543 -523.148 945.480 Q -521.799 941.418 -520.869 939.788 Q -519.940 938.159 -518.542 935.740 Q -517.144 933.320 -516.334 932.011 Q -515.525 930.701 -514.090 929.791 Q -512.654 928.881 -511.660 930.725 Q -510.665 932.568 -510.037 934.765 Q -509.409 936.961 -509.160 938.046 Q -508.911 939.132 -508.844 939.918 Q -508.777 940.705 -508.751 942.585 Q -508.725 944.465 -509.524 945.525 Q -510.324 946.584 -511.518 947.510 Q -512.713 948.436 -515.250 948.754 Q -517.787 949.073 -519.768 947.771 Q -521.750 946.470 -522.248 945.719 Q -522.747 944.968 -522.942 943.533 Q -523.137 942.098 -523.353 941.556 Q -523.568 941.015 -521.140 938.702 Q -518.712 936.390 -515.662 934.787 Q -512.613 933.184 -509.662 932.911 Q -506.711 932.637 -505.295 932.801 Q -503.878 932.964 -502.568 934.430 Q -501.259 935.896 -501.020 936.715 Q -500.782 937.534 -500.713 938.430 Q -500.645 939.326 -501.317 941.152 Q -501.990 942.978 -504.507 944.527 Q -507.024 946.076 -509.223 946.586 Q -511.421 947.095 -513.794 947.266 Q -516.166 947.437 -517.259 947.304 Q -518.353 947.172 -518.832 946.907 Q -519.311 946.643 -519.598 946.399 Q -519.884 946.156 -519.614 945.472 Q -519.343 944.789 -519.058 944.710 Q -518.772 944.630 -518.462 944.501 Q -518.152 944.373 -514.580 942.533 Q -511.008 940.694 -506.913 939.120 Q -502.817 937.545 -498.037 937.946 Q -496.527 941.181 -499.714 945.165 Q -502.901 949.149 -506.154 951.557 Q -509.406 953.966 -511.895 955.000 Q -514.384 956.033 -516.566 956.141 Q -518.748 956.249 -519.481 956.258 Q -520.213 956.267 -521.333 954.600 Q -522.453 952.933 -518.839 950.544 Q -515.225 948.155 -512.625 946.859 Q -510.025 945.563 -508.326 944.938 Q -506.626 944.312 -503.426 943.204 Q -500.226 942.096 -492.535 943.049 Q -492.374 942.911 -492.414 942.980 Q -492.454 943.050 -492.437 942.954 Q -492.420 942.858 -493.046 943.641 Q -493.672 944.423 -496.775 946.018 Q -499.878 947.612 -503.601 948.937 Q -507.325 950.263 -514.298 950.589 Q -514.384 949.799 -508.829 947.501 Q -503.273 945.203 -499.133 943.421 Q -494.993 941.639 -490.094 941.821 Q -490.257 942.579 -494.768 945.026 Q -499.278 947.473 -502.576 948.700 Q -505.875 949.927 -509.224 949.959 Q -509.752 950.244 -503.728 946.712 Q -497.703 943.181 -489.820 941.292 Q -489.820 942.385 -489.820 942.151 Q -489.312 943.310 -499.495 947.515 Q -498.679 947.684 -495.807 946.558 Q -492.936 945.433 -491.200 944.633 Q -489.465 943.833 -486.923 942.820 Q -488.068 942.821 -487.984 942.816 Q -487.900 942.810 -488.003 942.812 Q -488.106 942.813 -488.343 942.841 Q -488.581 942.868 -490.342 942.677 Q -492.104 942.486 -493.335 941.953 Q -494.566 941.420 -494.995 941.089 "></path>
    <path id="STROKE_489470f5-357a-49d1-a0a7-010609bf03d7" opacity="1.000" fill="none" stroke="#ec9eb4" stroke-width="10.200" stroke-opacity="1.000" stroke-linecap="round" stroke-linejoin="round" d="M -268.660 939.040 Q -267.738 939.343 -265.016 936.597 Q -265.573 936.110 -270.252 938.503 Q -274.932 940.896 -285.021 941.191 Q -285.738 940.245 -284.733 938.440 Q -283.729 936.635 -258.658 928.312 Q -259.007 928.734 -262.579 931.379 Q -266.151 934.024 -270.069 935.686 Q -273.987 937.347 -276.256 937.774 Q -278.526 938.202 -279.432 938.304 Q -280.338 938.407 -281.207 938.406 Q -282.077 938.405 -282.484 937.938 Q -282.892 937.472 -282.756 936.883 Q -282.619 936.293 -280.650 934.973 Q -278.680 933.653 -275.852 932.084 Q -273.024 930.516 -269.406 928.695 Q -265.788 926.874 -260.225 927.027 Q -260.151 927.772 -259.960 929.442 Q -259.770 931.112 -261.518 934.107 Q -263.267 937.101 -265.919 938.785 Q -268.572 940.468 -270.269 941.059 Q -271.966 941.650 -273.910 941.985 Q -275.855 942.321 -277.262 941.865 Q -278.668 941.409 -279.038 940.559 Q -279.408 939.708 -279.499 938.402 Q -279.590 937.096 -276.921 935.121 Q -274.252 933.146 -269.640 931.427 Q -265.027 929.708 -261.632 928.972 Q -258.237 928.237 -256.278 928.238 Q -254.319 928.239 -253.218 928.644 Q -252.117 929.049 -251.952 929.637 Q -251.788 930.225 -251.495 931.468 Q -251.201 932.711 -252.543 934.532 Q -253.885 936.354 -256.541 938.109 Q -259.196 939.864 -262.304 940.460 Q -265.411 941.057 -267.496 940.977 Q -269.581 940.897 -271.065 940.141 Q -272.549 939.386 -272.526 939.236 Q -272.503 939.086 -273.093 937.670 Q -273.684 936.254 -269.563 934.004 Q -265.443 931.754 -261.330 930.489 Q -257.218 929.224 -253.980 928.874 Q -250.743 928.525 -249.284 928.480 Q -247.824 928.435 -246.224 928.936 Q -244.624 929.437 -244.468 931.048 Q -244.312 932.660 -244.414 933.926 Q -244.516 935.193 -247.365 937.871 Q -250.214 940.550 -253.936 942.481 Q -257.657 944.412 -260.427 945.183 Q -263.196 945.954 -264.682 945.850 Q -266.169 945.747 -266.960 945.829 Q -267.751 945.910 -268.965 945.217 Q -270.179 944.523 -270.509 944.013 Q -270.839 943.503 -271.051 942.217 Q -271.263 940.932 -270.352 940.316 Q -269.441 939.700 -264.603 938.421 Q -259.765 937.142 -255.819 936.439 Q -251.872 935.736 -249.414 935.630 Q -246.955 935.524 -245.742 935.717 Q -244.529 935.911 -244.555 936.063 Q -244.580 936.216 -244.239 937.093 Q -243.897 937.969 -244.268 939.488 Q -244.638 941.007 -247.660 943.270 Q -250.681 945.533 -253.177 946.893 Q -255.672 948.252 -258.663 948.827 Q -261.654 949.402 -263.729 949.284 Q -265.805 949.165 -266.829 948.286 Q -267.852 947.407 -268.319 946.257 Q -268.786 945.107 -268.131 944.454 Q -267.476 943.801 -267.104 943.300 Q -266.733 942.798 -261.532 940.413 Q -256.331 938.028 -251.479 936.800 Q -246.627 935.571 -244.115 935.276 Q -241.603 934.980 -240.404 934.924 Q -239.206 934.868 -238.704 935.196 Q -238.202 935.523 -238.115 935.918 Q -238.027 936.313 -237.997 936.706 Q -237.967 937.099 -238.110 937.654 Q -238.253 938.209 -239.121 939.370 Q -239.989 940.531 -242.015 942.427 Q -244.041 944.324 -247.177 945.989 Q -250.313 947.654 -253.475 948.225 Q -256.638 948.796 -258.763 948.887 Q -260.888 948.979 -262.427 947.302 Q -263.965 945.625 -258.285 943.329 Q -252.605 941.033 -249.137 939.874 Q -245.668 938.714 -243.617 937.855 Q -241.565 936.996 -235.292 937.386 Q -235.151 937.844 -235.043 939.572 Q -234.934 941.300 -237.251 943.276 Q -239.568 945.252 -242.252 946.704 Q -244.935 948.155 -249.091 949.134 Q -253.247 950.112 -256.581 950.318 Q -259.916 950.524 -261.135 950.275 Q -262.354 950.025 -262.523 949.334 Q -262.692 948.644 -260.902 947.601 Q -259.112 946.558 -257.953 945.938 Q -256.793 945.319 -254.617 944.291 Q -252.440 943.264 -248.355 941.550 Q -244.270 939.837 -241.140 938.957 Q -238.009 938.078 -236.602 938.065 Q -235.194 938.053 -234.714 937.916 Q -234.234 937.779 -233.779 937.912 Q -233.325 938.045 -233.116 938.524 Q -232.908 939.003 -232.907 939.434 Q -232.906 939.865 -233.110 940.613 Q -233.314 941.361 -234.060 942.209 Q -234.806 943.058 -236.722 944.599 Q -238.638 946.139 -241.037 947.766 Q -243.437 949.393 -246.401 950.637 Q -249.365 951.880 -251.180 952.169 Q -252.994 952.458 -254.756 952.648 Q -256.518 952.838 -258.124 952.546 Q -259.729 952.253 -260.322 951.547 Q -260.914 950.841 -260.946 949.476 Q -260.979 948.112 -255.998 945.368 Q -251.017 942.624 -247.941 941.335 Q -244.865 940.046 -243.852 939.538 Q -242.839 939.029 -240.055 938.212 Q -237.271 937.395 -235.607 937.276 Q -233.943 937.157 -232.560 937.639 Q -231.178 938.120 -230.923 938.830 Q -230.668 939.540 -230.599 940.157 Q -230.530 940.774 -230.706 941.351 Q -230.882 941.928 -233.031 943.387 Q -235.180 944.846 -238.138 946.602 Q -241.096 948.358 -244.444 949.896 Q -247.793 951.434 -250.704 951.999 Q -253.615 952.563 -254.874 952.549 Q -256.133 952.534 -257.314 952.473 Q -258.495 952.411 -258.740 951.718 Q -258.984 951.025 -258.367 950.067 Q -257.750 949.109 -256.806 948.492 Q -255.862 947.876 -251.266 945.230 Q -246.670 942.583 -243.166 940.914 Q -239.663 939.245 -236.663 938.700 Q -233.664 938.156 -232.420 938.203 Q -231.177 938.250 -230.362 938.700 Q -229.548 939.151 -229.347 940.110 Q -229.147 941.070 -229.643 941.985 Q -230.139 942.901 -231.256 943.741 Q -232.372 944.581 -234.614 945.965 Q -236.855 947.348 -241.154 949.648 Q -245.452 951.948 -258.202 952.313 Q -259.612 951.722 -253.084 948.296 Q -246.555 944.870 -241.331 942.353 Q -236.106 939.836 -229.161 939.371 Q -228.463 940.442 -234.592 943.981 Q -240.722 947.521 -245.899 949.893 Q -251.077 952.265 -257.738 952.313 Q -257.816 952.631 -257.710 951.352 Q -255.993 950.358 -252.171 948.799 Q -248.348 947.239 -244.144 945.578 Q -239.939 943.916 -236.531 942.525 Q -233.124 941.134 -227.312 940.599 Q -227.076 941.687 -231.588 943.986 Q -236.100 946.284 -240.289 947.459 Q -244.478 948.633 -248.965 948.374 Q -249.002 948.273 -249.002 948.082 Q -248.387 948.416 -241.993 945.787 Q -235.600 943.157 -228.268 941.420 Q -229.171 942.117 -231.657 943.727 Q -234.143 945.337 -238.503 947.755 Q -242.863 950.173 -247.861 951.424 Q -252.858 952.675 -255.573 953.076 Q -258.288 953.477 -261.573 953.548 Q -264.859 953.619 -266.639 953.963 Q -268.419 954.306 -270.591 952.052 Q -269.725 951.747 -265.617 950.620 Q -265.377 950.400 -267.950 950.651 Q -270.524 950.902 -274.008 949.291 Q -277.492 947.681 -279.329 946.450 Q -281.167 945.220 -281.728 944.122 Q -282.290 943.023 -281.913 942.522 Q -281.535 942.020 -281.616 942.058 Q -281.697 942.096 -281.650 942.167 Q -281.603 942.237 -281.741 941.057 Q -281.501 941.147 -281.958 940.993 Q -282.415 940.840 -283.692 941.325 Q -284.969 941.810 -285.636 942.120 Q -286.302 942.431 -286.399 942.394 Q -286.495 942.357 -286.463 942.357 Q -286.431 942.357 -286.585 942.458 Q -286.738 942.559 -288.719 942.050 Q -288.719 942.018 -288.719 941.954 Q -288.692 941.954 -288.391 941.954 Q -288.428 941.954 -288.664 941.954 Q -289.223 942.525 -285.085 943.359 Q -280.946 944.192 -278.603 944.885 Q -276.259 945.578 -275.062 945.953 Q -273.865 946.327 -270.805 948.084 Q -267.745 949.842 -266.445 950.378 Q -265.146 950.913 -264.222 951.236 Q -263.298 951.558 -262.934 951.734 Q -262.569 951.909 -262.639 951.884 Q -262.709 951.860 -262.643 951.925 Q -262.577 951.989 -262.636 951.826 Q -262.695 951.662 -262.682 951.730 Q -262.670 951.797 -262.671 951.755 Q -262.672 951.714 -262.682 951.730 Q -262.691 951.746 -262.354 952.565 Q -262.017 953.385 -262.101 953.376 Q -262.101 954.180 -262.101 954.165 Q -262.101 955.198 -262.101 955.280 Q -262.101 955.361 -262.101 955.157 Q -261.512 956.393 -261.582 956.054 Q -260.823 956.621 -260.944 956.481 Q -260.551 956.660 -260.219 956.934 Q -259.887 957.207 -259.380 957.718 Q -258.873 958.228 -258.833 958.270 Q -258.793 958.312 -258.792 958.304 Q -258.791 958.297 -258.930 958.221 Q -259.069 958.146 -258.239 958.574 Q -258.073 958.476 -257.792 958.140 Q -257.512 957.803 -257.153 957.356 Q -256.795 956.909 -256.757 956.914 Q -256.719 956.919 -256.921 956.955 Q -257.123 956.992 -250.587 950.951 Q -250.064 950.497 -251.533 952.246 Q -253.001 953.995 -256.757 956.574 Q -260.512 959.153 -265.818 960.165 Q -265.891 960.488 -265.694 959.714 Q -265.496 958.939 -262.390 956.929 Q -259.284 954.919 -256.274 953.025 Q -253.264 951.132 -248.264 950.589 Q -248.258 951.246 -248.486 951.344 Q -248.714 951.441 -248.871 951.472 Q -249.028 951.502 -250.323 951.649 Q -251.617 951.796 -252.774 951.393 Q -253.930 950.990 -254.631 950.557 "></path>
  </g>
  <g id="New_Layer_1" opacity="1.000">
    <path id="STROKE_0d5a28fd-b314-454d-a614-3da605476077" opacity="1.000" fill="none" stroke="#4a4745" stroke-width="10.200" stroke-opacity="1.000" stroke-linecap="round" stroke-linejoin="round" d="M -606.218 768.000 L -562.917 743.000 L -519.615 718.000 L -476.314 693.000 L -482.921 696.815 "></path>
    <path id="STROKE_d661bfb6-a7c5-4f2c-a713-f501b4b13c37" opacity="1.000" fill="none" stroke="#4a4745" stroke-width="10.200" stroke-opacity="1.000" stroke-linecap="round" stroke-linejoin="round" d="M -606.218 768.000 L -562.917 743.000 L -519.615 718.000 L -476.314 693.000 "></path>
    <path id="STROKE_87b22aa7-b775-411e-831e-248d67313b32" opacity="1.000" fill="none" stroke="#4a4745" stroke-width="10.200" stroke-opacity="1.000" stroke-linecap="round" stroke-linejoin="round" d="M -606.218 768.000 L -606.218 718.000 L -606.218 668.000 L -606.218 668.949 "></path>
    <path id="STROKE_eee3a900-873e-494d-b710-7f6281d89b1a" opacity="1.000" fill="none" stroke="#4a4745" stroke-width="10.200" stroke-opacity="1.000" stroke-linecap="round" stroke-linejoin="round" d="M -606.218 668.000 L -562.917 643.000 L -519.615 668.000 L -476.314 693.000 "></path>
    <path id="STROKE_5fe4ca8b-d25a-4699-a50f-d2e06d6d3903" opacity="1.000" fill="none" stroke="#4a4745" stroke-width="10.200" stroke-opacity="1.000" stroke-linecap="round" stroke-linejoin="round" d="M -606.218 690.800 L -606.218 668.000 L -606.218 718.000 L -606.218 668.000 L -606.218 718.000 "></path>
    <path id="STROKE_cc037fbe-c4a5-4b5d-8b0f-77d8089dbfa6" opacity="1.000" fill="none" stroke="#4a4745" stroke-width="10.200" stroke-opacity="1.000" stroke-linecap="round" stroke-linejoin="round" d="M -519.615 818.000 L -519.615 868.000 "></path>
    <path id="STROKE_15bb189b-424d-48ce-84fd-b2885d5677b7" opacity="1.000" fill="none" stroke="#4a4745" stroke-width="10.200" stroke-opacity="1.000" stroke-linecap="round" stroke-linejoin="round" d="M -519.615 818.000 L -476.314 793.000 "></path>
    <path id="STROKE_601a8db0-ec0b-4823-9f21-de512bdcec56" opacity="1.000" fill="none" stroke="#4a4745" stroke-width="10.200" stroke-opacity="1.000" stroke-linecap="round" stroke-linejoin="round" d="M -476.314 793.000 L -433.013 818.000 L -433.013 868.000 L -476.314 893.000 L -519.615 868.000 "></path>
    <path id="STROKE_257a468c-0fc3-4b8f-9422-a5b2524dd7e8" opacity="1.000" fill="none" stroke="#4a4745" stroke-width="10.200" stroke-opacity="1.000" stroke-linecap="round" stroke-linejoin="round" d="M -346.410 818.000 L -346.410 868.000 "></path>
    <path id="STROKE_cd990f38-ddf7-41f6-8411-9b97ffa50e0a" opacity="1.000" fill="none" stroke="#4a4745" stroke-width="10.200" stroke-opacity="1.000" stroke-linecap="round" stroke-linejoin="round" d="M -346.410 818.000 L -303.109 793.000 L -259.808 818.000 L -259.808 868.000 L -303.109 893.000 L -346.410 868.000 "></path>
    <path id="STROKE_ee463a65-65f7-4e19-9b91-1f700a6ead87" opacity="1.000" fill="none" stroke="#4a4745" stroke-width="10.200" stroke-opacity="1.000" stroke-linecap="round" stroke-linejoin="round" d="M -433.013 968.000 L -389.711 943.000 L -346.410 968.000 L -389.711 993.000 L -433.013 968.000 "></path>
    <path id="STROKE_0466753a-310a-47a6-883d-6ba2685fcfeb" opacity="1.000" fill="none" stroke="#4a4745" stroke-width="10.200" stroke-opacity="1.000" stroke-linecap="round" stroke-linejoin="round" d="M -389.711 1009.009 L -389.711 1007.558 "></path>
    <path id="STROKE_60b769ca-eb1f-4dc2-af19-6c94acbf3ba0" opacity="1.000" fill="none" stroke="#4a4745" stroke-width="10.200" stroke-opacity="1.000" stroke-linecap="round" stroke-linejoin="round" d="M -389.711 993.000 L -389.711 1043.000 L -346.410 1018.000 "></path>
    <path id="STROKE_e58582f5-f022-4730-82ff-9bbf05d3420c" opacity="1.000" fill="none" stroke="#4a4745" stroke-width="10.200" stroke-opacity="1.000" stroke-linecap="round" stroke-linejoin="round" d="M -433.013 1018.000 L -389.711 1043.000 "></path>
    <path id="STROKE_efd4afe5-b0f3-4906-a04e-8a9271b8b276" opacity="1.000" fill="none" stroke="#4a4745" stroke-width="10.200" stroke-opacity="1.000" stroke-linecap="round" stroke-linejoin="round" d="M -389.711 993.000 L -389.711 1043.000 L -389.711 1041.778 "></path>
    <path id="STROKE_dfa2dd56-83ec-41c8-9e13-ec7dd16b2a76" opacity="1.000" fill="none" stroke="#4a4745" stroke-width="10.200" stroke-opacity="1.000" stroke-linecap="round" stroke-linejoin="round" d="M -587.730 700.000 Q -587.710 699.796 -586.407 703.201 Q -585.104 706.606 -585.699 724.625 Q -588.325 724.843 -588.386 695.966 L -588.322 695.966 Q -588.135 696.848 -588.046 706.802 Q -587.957 716.756 -588.750 728.990 Q -590.469 729.708 -590.973 696.959 Q -590.748 697.746 -590.272 731.242 Q -592.642 731.189 -592.658 686.753 Q -592.011 687.629 -591.586 698.828 Q -591.160 710.028 -591.284 715.974 Q -591.408 721.919 -591.453 724.913 Q -591.499 727.906 -592.585 729.919 Q -593.601 730.234 -594.093 726.246 Q -594.585 722.259 -594.826 719.689 Q -595.068 717.118 -595.422 713.194 Q -595.776 709.269 -595.874 685.175 Q -595.671 685.869 -595.555 699.353 Q -595.439 712.837 -595.601 722.212 Q -595.763 731.587 -597.131 738.630 Q -598.641 739.137 -598.976 729.353 Q -599.310 719.569 -598.905 711.712 Q -598.500 703.855 -598.063 699.245 Q -597.626 694.636 -597.532 689.743 Q -597.534 689.043 -597.510 708.000 Q -597.487 726.957 -597.687 747.760 Q -598.531 749.043 -599.366 744.474 Q -600.200 739.906 -600.375 736.164 Q -600.551 732.423 -600.698 723.734 Q -600.846 715.046 -599.081 696.628 Q -598.708 696.925 -598.619 702.245 Q -598.530 707.565 -596.603 751.502 Q -596.639 751.368 -597.051 742.646 Q -597.463 733.925 -597.283 725.492 Q -597.103 717.060 -594.043 703.704 Q -594.265 703.253 -593.471 704.347 Q -592.677 705.440 -593.387 746.997 Q -595.553 747.808 -596.526 736.215 Q -597.499 724.621 -597.790 716.135 Q -598.081 707.649 -594.344 682.922 Q -593.541 682.297 -593.329 693.458 Q -593.117 704.620 -593.645 712.123 Q -594.173 719.625 -594.519 723.940 Q -594.864 728.255 -597.095 738.954 Q -598.526 739.379 -599.457 735.289 Q -600.388 731.198 -600.794 723.361 Q -601.199 715.524 -600.513 707.649 Q -599.826 699.773 -599.069 695.832 Q -598.311 691.890 -597.812 689.017 Q -597.312 686.144 -593.788 671.596 Q -592.416 671.916 -591.859 678.463 Q -591.303 685.010 -591.360 690.256 Q -591.416 695.502 -591.899 698.545 Q -592.383 701.588 -592.968 703.203 Q -593.553 704.818 -594.426 705.472 Q -595.299 706.125 -595.900 706.168 Q -596.502 706.211 -597.302 705.872 Q -598.102 705.533 -598.835 703.383 Q -599.567 701.234 -599.857 698.714 Q -600.147 696.193 -600.518 692.859 Q -600.888 689.525 -599.783 684.869 Q -598.677 680.213 -597.749 677.744 Q -596.821 675.275 -596.123 673.592 Q -595.426 671.908 -593.451 671.138 Q -592.177 671.924 -591.849 677.091 Q -591.522 682.258 -592.260 686.654 Q -592.999 691.051 -594.047 693.646 Q -595.095 696.241 -595.831 697.274 Q -596.567 698.307 -597.139 698.598 Q -597.712 698.889 -599.491 699.114 Q -601.269 699.340 -602.119 698.608 Q -602.970 697.877 -603.233 694.343 Q -603.495 690.810 -603.614 688.717 Q -603.733 686.625 -602.873 682.842 Q -602.013 679.058 -600.741 676.677 Q -599.468 674.296 -598.565 672.608 Q -597.663 670.919 -596.795 670.169 Q -595.927 669.418 -594.430 669.608 Q -592.934 669.797 -591.889 673.645 Q -590.844 677.494 -590.557 681.004 Q -590.270 684.514 -590.198 688.154 Q -590.127 691.795 -590.174 693.718 Q -590.221 695.642 -590.653 697.178 Q -591.084 698.715 -592.589 698.636 Q -594.093 698.558 -595.510 695.937 Q -596.927 693.316 -597.694 688.930 Q -598.460 684.543 -598.168 681.330 Q -597.876 678.117 -597.337 676.556 Q -596.798 674.994 -596.054 673.544 Q -595.309 672.094 -594.710 671.443 Q -594.111 670.792 -593.672 670.750 Q -593.233 670.709 -592.176 671.080 Q -591.118 671.451 -590.557 678.343 Q -589.997 685.234 -590.092 689.399 Q -590.187 693.565 -590.157 696.783 Q -590.127 700.002 -590.363 701.706 Q -590.599 703.410 -590.856 703.815 Q -591.113 704.219 -591.671 704.446 Q -592.230 704.673 -592.819 703.323 Q -593.409 701.973 -593.584 699.871 Q -593.760 697.770 -593.772 694.490 Q -593.784 691.209 -592.996 688.390 Q -592.208 685.570 -590.718 682.444 Q -589.228 679.319 -587.318 676.936 Q -585.408 674.553 -583.924 673.363 Q -582.439 672.172 -581.488 671.870 Q -580.536 671.569 -579.583 671.861 Q -578.629 672.153 -577.760 673.109 Q -576.890 674.065 -576.491 677.212 Q -576.091 680.359 -576.054 682.671 Q -576.017 684.982 -576.000 689.848 Q -575.984 694.715 -576.868 700.389 Q -577.752 706.062 -578.521 709.469 Q -579.291 712.876 -579.865 714.625 Q -580.440 716.374 -580.995 716.699 Q -581.550 717.024 -583.373 717.261 Q -585.196 717.498 -586.722 714.888 Q -588.248 712.277 -588.876 707.887 Q -589.504 703.497 -589.607 700.188 Q -589.709 696.880 -589.650 693.409 Q -589.592 689.939 -589.219 687.642 Q -588.847 685.345 -587.681 681.040 Q -586.515 676.736 -584.625 673.375 Q -582.734 670.013 -581.629 668.311 Q -580.523 666.610 -578.869 665.243 Q -577.215 663.875 -575.936 663.826 Q -574.657 663.776 -573.381 665.003 Q -572.105 666.230 -571.586 671.488 Q -571.067 676.746 -571.317 680.825 Q -571.568 684.904 -572.157 688.014 Q -572.747 691.125 -573.719 694.278 Q -574.690 697.432 -576.192 699.723 Q -577.695 702.015 -579.427 703.321 Q -581.158 704.627 -582.894 704.843 Q -584.631 705.059 -585.848 704.921 Q -587.065 704.784 -588.441 703.333 Q -589.816 701.881 -590.828 700.614 Q -591.841 699.347 -592.273 695.229 Q -592.706 691.111 -592.804 688.316 Q -592.901 685.521 -591.177 681.076 Q -589.454 676.631 -587.262 672.688 Q -585.071 668.745 -582.848 665.600 Q -580.624 662.455 -578.976 660.035 Q -577.328 657.616 -574.819 655.352 Q -572.310 653.089 -569.019 652.100 Q -567.890 653.224 -567.513 657.371 Q -567.137 661.519 -568.448 666.668 Q -569.759 671.817 -571.519 676.154 Q -573.278 680.491 -575.507 683.583 Q -577.737 686.674 -579.534 688.212 Q -581.330 689.751 -582.769 690.586 Q -584.207 691.420 -585.927 691.326 Q -587.647 691.231 -588.802 691.009 Q -589.956 690.787 -590.490 689.305 Q -591.025 687.823 -591.112 685.422 Q -591.199 683.021 -590.555 679.835 Q -589.910 676.650 -587.593 673.188 Q -585.277 669.727 -583.674 667.989 Q -582.071 666.251 -581.102 665.200 Q -580.133 664.150 -577.735 661.819 Q -575.337 659.489 -573.372 658.017 Q -571.407 656.545 -570.150 655.724 Q -568.892 654.904 -567.689 654.703 Q -566.485 654.502 -565.650 655.288 Q -564.815 656.074 -564.655 658.661 Q -564.495 661.247 -566.231 666.233 Q -567.967 671.218 -571.749 676.545 Q -575.530 681.872 -577.783 684.485 Q -580.036 687.099 -581.774 688.801 Q -583.513 690.503 -585.816 692.212 Q -588.119 693.922 -591.930 693.676 Q -593.873 692.061 -589.037 683.835 Q -584.201 675.609 -580.854 671.249 Q -577.507 666.889 -575.056 664.318 Q -572.605 661.747 -571.381 660.600 Q -570.156 659.452 -569.482 658.789 Q -568.807 658.126 -567.648 657.744 Q -566.490 657.362 -565.588 657.780 Q -564.685 658.197 -564.325 662.992 Q -563.964 667.786 -565.375 675.900 Q -566.786 684.013 -569.670 694.347 Q -572.554 704.681 -574.423 710.457 Q -576.293 716.233 -577.413 719.093 Q -578.534 721.952 -579.562 723.242 Q -580.590 724.532 -581.677 725.341 Q -582.764 726.150 -584.548 726.331 Q -586.333 726.512 -587.593 725.483 Q -588.853 724.453 -589.209 719.864 Q -589.566 715.274 -588.466 709.129 Q -587.366 702.983 -586.169 699.271 Q -584.971 695.559 -584.250 692.978 Q -583.530 690.396 -580.766 684.616 Q -578.002 678.836 -575.899 674.878 Q -573.796 670.920 -572.161 668.595 Q -570.527 666.271 -568.090 665.176 Q -566.507 665.953 -566.191 671.426 Q -565.874 676.899 -566.484 681.806 Q -567.093 686.712 -568.605 692.351 Q -570.118 697.990 -571.037 700.986 Q -571.956 703.982 -573.443 707.733 Q -574.930 711.484 -576.872 715.234 Q -578.814 718.984 -580.084 721.606 Q -581.355 724.229 -583.180 725.356 Q -585.006 726.484 -586.569 726.362 Q -588.132 726.241 -589.157 725.201 Q -590.181 724.160 -590.616 719.938 Q -591.052 715.716 -590.776 709.677 Q -590.500 703.638 -589.892 699.510 Q -589.283 695.382 -587.464 690.057 Q -585.645 684.733 -584.485 682.006 Q -583.325 679.280 -582.160 677.223 Q -580.996 675.166 -579.484 674.621 Q -577.971 674.077 -577.147 678.768 Q -576.323 683.459 -576.669 691.520 Q -577.016 699.580 -577.618 704.584 Q -578.220 709.588 -579.577 715.869 Q -580.935 722.151 -581.616 725.472 Q -582.297 728.793 -582.722 730.231 Q -583.146 731.669 -584.348 733.077 Q -585.549 734.484 -587.691 732.629 Q -589.832 730.773 -590.993 723.303 Q -592.155 715.834 -592.121 709.496 Q -592.087 703.159 -592.250 699.941 Q -592.413 696.723 -589.884 686.190 Q -587.355 675.656 -583.294 665.908 Q -583.064 665.676 -582.837 666.386 Q -582.609 667.096 -582.504 668.055 Q -582.398 669.013 -582.443 670.454 Q -582.487 671.896 -582.261 673.113 Q -582.034 674.330 -582.954 684.175 Q -583.874 694.020 -584.663 700.533 Q -585.451 707.047 -587.757 713.235 Q -588.224 714.104 -589.552 712.082 Q -590.880 710.061 -591.289 703.821 Q -591.699 697.581 -591.868 692.876 Q -592.037 688.170 -591.028 682.357 Q -590.020 676.544 -589.163 673.882 Q -588.306 671.219 -587.884 669.886 Q -587.461 668.553 -586.573 668.020 Q -585.953 668.519 -585.804 672.843 Q -585.655 677.166 -586.560 680.033 Q -587.464 682.900 -588.037 684.370 Q -588.610 685.840 -589.086 686.395 Q -589.562 686.950 -590.082 687.019 Q -590.603 687.089 -590.923 686.945 Q -591.244 686.801 -591.677 685.600 Q -592.110 684.400 -592.237 683.181 Q -592.364 681.961 -592.385 680.951 Q -592.405 679.941 -592.578 676.963 Q -592.750 673.985 -592.292 671.113 Q -591.833 668.240 -590.339 666.222 Q -588.846 664.204 -587.891 663.251 Q -586.936 662.299 -585.816 662.265 Q -584.696 662.231 -584.530 666.395 Q -584.365 670.558 -584.604 675.267 Q -584.843 679.977 -585.860 684.785 Q -586.877 689.593 -587.434 692.354 Q -587.990 695.115 -589.506 696.819 Q -590.200 695.386 -589.044 689.743 Q -587.888 684.099 -585.940 680.125 Q -583.992 676.151 -582.905 674.250 Q -581.818 672.348 -579.987 670.016 Q -578.156 667.684 -576.692 665.930 Q -575.227 664.176 -574.329 663.428 Q -573.431 662.681 -571.304 662.086 Q -569.177 661.491 -568.923 666.944 Q -568.669 672.396 -569.021 677.746 Q -569.374 683.096 -571.102 689.122 Q -572.830 695.149 -573.878 698.367 Q -574.926 701.585 -575.848 703.187 Q -576.769 704.789 -578.146 705.515 Q -579.523 706.241 -580.365 705.352 Q -581.207 704.464 -581.662 700.029 Q -582.117 695.594 -581.680 690.678 Q -581.243 685.762 -580.378 682.112 Q -579.513 678.462 -577.012 672.863 Q -574.512 667.265 -572.926 664.073 Q -571.340 660.882 -570.380 658.906 Q -569.420 656.931 -568.323 654.658 Q -567.227 652.386 -565.941 650.628 Q -564.656 648.870 -563.154 648.386 Q -561.651 647.902 -560.542 648.188 Q -559.432 648.475 -558.452 650.566 Q -557.473 652.658 -557.172 656.905 Q -556.870 661.152 -557.691 666.409 Q -558.511 671.665 -559.339 674.935 Q -560.167 678.204 -561.289 682.306 Q -562.411 686.409 -564.768 691.946 Q -567.125 697.484 -568.424 700.556 Q -569.723 703.628 -570.902 705.687 Q -572.082 707.745 -573.765 708.651 Q -575.449 709.556 -576.498 709.700 Q -577.547 709.844 -578.933 709.520 Q -580.319 709.196 -580.735 705.240 Q -581.151 701.285 -580.846 697.011 Q -580.541 692.737 -578.270 685.776 Q -575.998 678.815 -574.661 675.078 Q -573.324 671.341 -571.388 666.670 Q -569.452 661.999 -567.907 659.038 Q -566.363 656.078 -564.988 654.104 Q -563.614 652.131 -561.651 651.303 Q -559.688 650.475 -557.827 651.069 Q -555.966 651.662 -554.335 654.549 Q -552.704 657.435 -552.099 663.156 Q -551.493 668.878 -551.401 674.649 Q -551.309 680.421 -553.002 688.994 Q -554.695 697.566 -556.597 703.783 Q -558.498 709.999 -560.225 714.391 Q -561.952 718.784 -562.994 721.347 Q -564.035 723.910 -565.799 724.981 Q -567.563 726.052 -569.174 726.176 Q -570.784 726.300 -572.132 725.379 Q -573.480 724.457 -574.349 723.386 Q -575.217 722.315 -575.897 719.275 Q -576.576 716.236 -576.232 711.207 Q -575.889 706.178 -574.222 700.544 Q -572.556 694.910 -569.971 689.416 Q -567.387 683.923 -565.567 680.511 Q -563.747 677.099 -561.908 674.017 Q -560.069 670.935 -557.843 668.036 Q -555.617 665.137 -554.241 663.125 Q -552.866 661.113 -551.172 659.534 Q -549.479 657.955 -547.838 656.940 Q -546.196 655.925 -544.812 658.064 Q -543.428 660.204 -543.336 665.579 Q -543.243 670.954 -543.749 674.766 Q -544.255 678.579 -545.132 682.564 Q -546.009 686.549 -547.353 691.521 Q -548.698 696.494 -550.533 701.275 Q -552.368 706.055 -554.542 709.424 Q -556.715 712.793 -558.556 715.035 Q -560.396 717.276 -562.508 718.584 Q -564.619 719.892 -567.032 720.173 Q -569.446 720.453 -570.562 719.872 Q -571.678 719.291 -572.053 717.500 Q -572.428 715.709 -572.457 712.593 Q -572.487 709.476 -570.848 703.874 Q -569.209 698.272 -566.405 692.276 Q -563.602 686.279 -559.526 680.500 Q -555.450 674.721 -552.757 671.809 Q -550.063 668.897 -548.657 667.520 Q -547.250 666.143 -545.574 665.324 Q -543.898 664.505 -542.837 665.458 Q -541.777 666.410 -541.216 669.962 Q -540.655 673.513 -541.123 678.226 Q -541.591 682.939 -542.970 688.597 Q -544.348 694.255 -546.704 700.426 Q -549.060 706.597 -550.573 709.889 Q -552.086 713.180 -553.004 714.810 Q -553.923 716.440 -554.623 717.581 Q -555.323 718.722 -556.516 720.315 Q -557.708 721.909 -559.709 723.110 Q -561.709 724.311 -563.548 724.673 Q -565.388 725.035 -567.347 724.065 Q -569.306 723.095 -569.731 718.448 Q -570.155 713.800 -569.203 709.331 Q -568.250 704.862 -566.871 700.711 Q -565.491 696.560 -561.862 690.358 Q -558.232 684.157 -556.085 680.833 Q -553.937 677.508 -551.234 673.931 Q -548.531 670.353 -547.007 668.421 Q -545.483 666.488 -543.966 665.360 Q -542.448 664.232 -540.679 663.617 Q -538.909 663.002 -537.252 663.465 Q -535.596 663.929 -534.398 666.575 Q -533.201 669.222 -532.893 672.767 Q -532.584 676.313 -533.107 680.426 Q -533.630 684.539 -534.504 687.480 Q -535.378 690.421 -536.453 693.388 Q -537.527 696.355 -539.220 699.979 Q -540.914 703.603 -542.697 706.204 Q -544.481 708.806 -546.205 710.427 Q -547.929 712.049 -550.221 712.510 Q -552.513 712.971 -554.184 713.043 Q -555.854 713.115 -557.589 711.807 Q -559.324 710.498 -560.317 709.521 Q -561.310 708.544 -561.735 706.503 Q -562.160 704.462 -562.288 702.395 Q -562.416 700.327 -560.890 697.178 Q -559.363 694.029 -558.137 692.329 Q -556.911 690.629 -555.286 688.597 Q -553.661 686.565 -551.028 683.770 Q -548.395 680.976 -546.674 679.247 Q -544.952 677.518 -543.993 676.535 Q -543.033 675.552 -540.878 673.690 Q -538.723 671.828 -536.486 670.550 Q -534.248 669.273 -532.981 668.695 Q -531.714 668.118 -530.709 668.024 Q -529.703 667.930 -528.423 667.666 Q -527.143 667.403 -527.007 670.023 Q -526.870 672.643 -526.983 674.252 Q -527.096 675.861 -527.853 678.440 Q -528.609 681.020 -530.964 685.933 Q -533.318 690.846 -537.205 695.941 Q -541.093 701.035 -544.035 703.901 Q -546.977 706.767 -548.746 708.332 Q -550.515 709.896 -553.443 710.604 Q -556.370 711.312 -558.892 711.319 Q -561.413 711.326 -562.902 711.030 Q -564.390 710.733 -565.305 710.042 Q -566.220 709.351 -566.821 707.721 Q -567.422 706.091 -566.180 703.056 Q -564.939 700.022 -562.745 696.800 Q -560.550 693.578 -555.278 688.116 Q -550.005 682.655 -546.045 679.549 Q -542.085 676.442 -540.140 674.979 Q -538.195 673.516 -535.779 672.723 Q -533.363 671.929 -531.930 671.878 Q -530.498 671.827 -529.372 671.834 Q -528.246 671.841 -527.469 675.182 Q -526.693 678.523 -527.578 682.382 Q -528.463 686.241 -529.654 689.233 Q -530.845 692.226 -534.506 696.046 Q -538.167 699.867 -540.271 701.694 Q -542.374 703.522 -545.067 705.424 Q -547.759 707.326 -551.400 708.075 Q -555.042 708.824 -557.728 708.832 Q -560.414 708.839 -562.802 708.029 Q -565.191 707.219 -566.602 706.208 Q -568.012 705.197 -568.913 704.370 Q -569.813 703.542 -569.654 701.983 Q -569.496 700.425 -569.099 698.964 Q -568.701 697.503 -567.180 695.601 Q -565.658 693.698 -564.911 692.474 Q -564.163 691.250 -558.327 686.407 Q -552.491 681.565 -549.165 678.856 Q -545.838 676.147 -543.430 674.438 Q -541.021 672.730 -537.956 673.092 Q -537.298 674.437 -538.052 678.878 Q -538.806 683.320 -542.254 689.386 Q -545.701 695.453 -548.494 699.730 Q -551.287 704.006 -555.667 708.176 Q -560.048 712.346 -562.699 714.427 Q -565.349 716.508 -567.745 717.596 Q -570.141 718.683 -572.395 718.802 Q -574.649 718.921 -576.540 718.713 Q -578.432 718.505 -580.321 717.456 Q -582.211 716.406 -582.438 713.299 Q -582.665 710.191 -580.419 704.996 Q -578.174 699.801 -575.872 696.315 Q -573.570 692.829 -572.198 690.980 Q -570.826 689.132 -569.376 687.461 Q -567.926 685.791 -566.329 685.221 Q -564.732 684.650 -563.728 684.601 Q -562.723 684.553 -561.423 685.820 Q -560.122 687.086 -559.840 691.524 Q -559.557 695.962 -559.889 699.804 Q -560.221 703.646 -562.222 708.046 Q -564.222 712.446 -566.275 715.316 Q -568.328 718.187 -570.254 719.958 Q -572.180 721.729 -574.391 722.509 Q -576.602 723.289 -578.382 723.428 Q -580.163 723.566 -581.821 722.972 Q -583.480 722.377 -584.528 721.617 Q -585.577 720.857 -585.970 718.633 Q -586.363 716.409 -585.564 713.740 Q -584.766 711.072 -582.689 708.525 Q -580.612 705.978 -578.192 703.859 Q -575.772 701.739 -571.734 701.254 Q -571.156 701.472 -570.832 705.350 Q -570.509 709.227 -571.695 714.286 Q -572.881 719.344 -575.811 724.172 Q -578.741 728.999 -580.429 731.239 Q -582.116 733.479 -584.020 735.540 Q -585.924 737.601 -589.816 738.165 Q -590.602 737.105 -589.940 732.603 Q -589.277 728.101 -587.469 724.606 Q -585.660 721.111 -584.009 719.026 Q -582.357 716.940 -581.416 716.190 Q -580.474 715.439 -579.367 715.335 Q -578.260 715.230 -577.594 715.704 Q -576.927 716.177 -576.465 717.159 Q -576.002 718.140 -575.842 721.730 Q -575.681 725.320 -575.921 728.846 Q -576.161 732.372 -578.312 736.070 Q -580.463 739.768 -581.910 741.656 Q -583.356 743.544 -585.044 744.807 Q -586.731 746.071 -588.636 746.694 Q -590.540 747.318 -592.194 747.535 Q -593.849 747.752 -594.856 747.201 Q -595.863 746.651 -596.295 745.929 Q -596.727 745.206 -596.794 744.661 Q -596.860 744.115 -596.776 743.862 Q -596.692 743.608 -596.887 742.383 Q -597.083 741.158 -596.003 739.153 Q -594.924 737.147 -593.552 735.502 Q -592.181 733.857 -589.707 734.023 Q -589.311 734.538 -589.168 736.833 Q -589.025 739.127 -589.790 741.543 Q -590.556 743.959 -591.376 745.422 Q -592.196 746.885 -593.702 749.151 Q -595.209 751.418 -598.388 753.326 Q -601.566 755.233 -605.266 754.944 Q -605.932 754.214 -604.458 750.885 Q -602.984 747.555 -600.260 744.633 Q -597.536 741.710 -596.038 740.177 Q -594.540 738.644 -592.952 738.116 Q -591.364 737.587 -590.516 737.677 Q -589.669 737.768 -589.091 740.099 Q -588.514 742.429 -588.420 744.786 Q -588.326 747.142 -588.952 748.931 Q -589.578 750.720 -590.337 751.458 Q -591.097 752.197 -591.847 752.642 Q -592.598 753.088 -593.040 753.208 Q -593.481 753.329 -593.674 753.349 Q -593.866 753.370 -594.210 753.417 Q -594.555 753.463 -594.876 753.327 Q -595.196 753.191 -595.313 753.077 Q -595.430 752.964 -595.615 752.236 Q -595.799 751.507 -595.894 750.257 Q -595.989 749.006 -595.464 747.403 Q -594.939 745.800 -592.684 741.680 Q -590.428 737.560 -586.140 732.749 Q -581.852 727.938 -578.684 725.022 Q -575.516 722.107 -573.159 720.582 Q -570.801 719.058 -568.354 718.771 Q -568.036 719.440 -568.014 721.753 Q -567.992 724.067 -569.498 726.832 Q -571.004 729.597 -572.543 731.738 Q -574.083 733.878 -576.711 736.603 Q -579.339 739.328 -585.735 739.883 Q -588.683 737.815 -564.583 718.860 Q -564.470 720.256 -564.525 720.194 Q -564.580 720.131 -564.610 720.557 Q -564.640 720.982 -564.914 721.438 Q -565.187 721.895 -565.396 722.414 Q -565.605 722.934 -567.911 726.662 Q -570.217 730.390 -572.476 733.334 Q -574.735 736.279 -577.246 738.746 Q -579.757 741.214 -582.127 742.450 Q -584.497 743.686 -587.129 743.688 Q -587.578 743.133 -586.647 741.904 Q -585.715 740.674 -580.484 736.616 Q -575.253 732.557 -571.995 729.937 Q -568.737 727.317 -565.375 726.343 Q -565.196 725.972 -565.424 727.343 Q -565.653 728.714 -567.595 731.666 Q -569.538 734.618 -571.956 737.581 Q -574.374 740.544 -577.232 742.832 Q -580.091 745.121 -583.822 745.311 Q -584.471 743.693 -582.706 741.517 Q -580.941 739.341 -575.503 734.425 Q -570.064 729.510 -566.531 726.909 Q -562.997 724.308 -560.789 722.929 Q -558.581 721.551 -556.667 721.813 Q -555.978 723.168 -560.072 727.759 Q -564.165 732.350 -567.299 734.870 Q -570.434 737.390 -572.656 738.479 Q -574.878 739.568 -576.804 739.729 Q -578.730 739.889 -579.743 739.445 Q -580.756 739.001 -581.246 737.792 Q -581.736 736.583 -580.731 734.056 Q -579.725 731.529 -573.838 722.418 Q -567.951 713.307 -564.540 707.250 Q -561.129 701.193 -557.004 697.150 Q -555.905 698.111 -558.667 705.644 Q -561.429 713.177 -564.625 720.049 Q -567.820 726.920 -571.069 732.171 Q -571.897 731.245 -569.295 726.773 Q -566.692 722.301 -561.815 716.883 Q -556.937 711.465 -553.605 708.008 Q -550.273 704.551 -547.859 702.675 Q -545.445 700.799 -542.529 700.395 Q -541.732 701.101 -541.903 704.960 Q -542.075 708.820 -543.855 712.875 Q -545.636 716.929 -548.013 720.210 Q -550.390 723.491 -552.972 725.720 Q -555.554 727.950 -558.707 728.913 Q -561.860 729.877 -563.688 730.246 Q -565.516 730.616 -566.941 730.161 Q -568.365 729.705 -568.983 729.031 Q -569.600 728.358 -569.522 727.861 Q -569.444 727.365 -568.739 726.647 Q -568.034 725.929 -567.479 725.495 Q -566.923 725.060 -566.470 724.684 Q -566.016 724.309 -565.556 723.961 Q -565.095 723.612 -564.251 722.948 Q -563.407 722.283 -562.183 721.295 Q -560.958 720.306 -559.948 719.531 Q -558.937 718.756 -556.396 716.389 Q -553.855 714.022 -552.089 712.187 Q -550.322 710.352 -548.612 708.331 Q -546.902 706.310 -544.300 704.022 Q -541.698 701.735 -538.393 700.490 Q -538.023 700.441 -537.924 701.480 Q -537.824 702.519 -537.818 703.928 Q -537.811 705.337 -538.089 706.239 Q -538.366 707.140 -538.638 708.231 Q -538.909 709.322 -540.962 713.485 Q -543.015 717.648 -545.395 720.707 Q -547.774 723.765 -549.632 725.349 Q -551.490 726.933 -553.078 728.177 Q -554.665 729.421 -556.824 729.737 Q -558.984 730.052 -560.199 729.855 Q -561.414 729.657 -562.400 729.183 Q -563.386 728.710 -563.131 726.779 Q -562.876 724.849 -561.680 723.135 Q -560.484 721.421 -554.829 713.299 Q -549.174 705.176 -546.447 700.627 Q -543.720 696.079 -541.091 692.426 Q -538.462 688.773 -536.957 687.208 Q -535.451 685.644 -534.003 684.325 Q -532.554 683.005 -531.099 682.415 Q -529.644 681.825 -528.726 681.950 Q -527.807 682.075 -527.311 682.553 Q -526.815 683.030 -526.455 683.945 Q -526.094 684.861 -526.040 685.814 Q -525.986 686.766 -525.873 688.484 Q -525.760 690.202 -525.800 693.433 Q -525.839 696.664 -526.846 700.086 Q -527.853 703.508 -528.885 706.034 Q -529.918 708.560 -531.673 710.351 Q -533.428 712.141 -535.662 712.825 Q -537.895 713.509 -539.757 713.171 Q -541.618 712.834 -542.973 711.816 Q -544.328 710.798 -545.159 707.864 Q -545.990 704.930 -545.755 702.008 Q -545.520 699.086 -545.137 697.824 Q -544.755 696.561 -544.058 694.701 Q -543.361 692.841 -540.761 689.770 Q -538.160 686.700 -535.118 684.166 Q -532.076 681.631 -529.527 679.916 Q -526.979 678.200 -525.460 677.327 Q -523.941 676.453 -522.808 676.080 Q -521.675 675.707 -520.390 675.673 Q -519.105 675.638 -518.694 678.730 Q -518.283 681.822 -519.331 686.124 Q -520.380 690.425 -522.342 693.852 Q -524.305 697.280 -526.012 699.119 Q -527.719 700.958 -528.818 701.837 Q -529.917 702.716 -531.865 703.277 Q -533.813 703.837 -535.940 703.510 Q -538.066 703.182 -538.649 700.722 Q -539.231 698.261 -539.091 695.976 Q -538.951 693.691 -537.251 690.620 Q -535.552 687.548 -533.020 684.249 Q -530.487 680.950 -528.517 678.529 Q -526.547 676.108 -525.048 674.992 Q -523.549 673.876 -522.148 673.553 Q -520.748 673.230 -519.720 673.696 Q -518.692 674.161 -518.290 675.256 Q -517.888 676.351 -517.508 678.784 Q -517.128 681.216 -517.601 684.135 Q -518.074 687.055 -518.308 688.734 Q -518.542 690.414 -520.314 694.293 Q -522.086 698.172 -523.281 700.392 Q -524.476 702.612 -525.995 704.528 Q -527.514 706.444 -528.929 707.505 Q -530.343 708.565 -531.864 708.757 Q -533.385 708.950 -534.519 708.754 Q -535.652 708.558 -536.358 707.253 Q -537.063 705.947 -537.382 704.296 Q -537.701 702.646 -535.250 699.270 Q -532.799 695.895 -529.249 692.527 Q -525.699 689.159 -523.174 687.119 Q -520.650 685.080 -518.446 683.934 Q -516.242 682.789 -514.887 682.610 Q -513.532 682.432 -512.174 682.505 Q -510.817 682.578 -510.389 683.706 Q -509.960 684.834 -509.748 686.791 Q -509.535 688.748 -511.033 692.017 Q -512.531 695.285 -514.380 697.759 Q -516.230 700.232 -518.912 702.445 Q -521.594 704.657 -524.162 705.643 Q -526.730 706.629 -528.332 706.724 Q -529.934 706.819 -530.740 706.544 Q -531.546 706.268 -531.587 704.711 Q -531.627 703.154 -529.933 700.944 Q -528.239 698.734 -527.486 697.439 Q -526.734 696.144 -524.010 692.994 Q -521.287 689.844 -518.842 687.728 Q -516.397 685.613 -514.295 684.489 Q -512.192 683.365 -510.809 683.271 Q -509.426 683.176 -508.273 683.277 Q -507.120 683.378 -506.613 684.387 Q -506.107 685.396 -505.972 687.825 Q -505.838 690.254 -505.913 692.194 Q -505.989 694.133 -507.425 696.563 Q -508.862 698.992 -511.607 700.991 Q -514.351 702.991 -516.896 703.840 Q -519.441 704.689 -521.254 704.859 Q -523.067 705.030 -524.384 704.360 Q -525.701 703.690 -525.994 701.943 Q -526.287 700.195 -520.454 696.755 Q -514.621 693.316 -511.312 691.385 Q -508.003 689.455 -505.775 688.419 Q -503.546 687.382 -502.371 687.258 Q -501.196 687.133 -500.373 687.091 Q -499.550 687.049 -499.245 687.412 Q -498.940 687.774 -498.914 690.069 Q -498.888 692.365 -501.047 695.483 Q -503.206 698.601 -505.806 701.020 Q -508.407 703.438 -513.533 704.206 Q -514.849 703.171 -511.116 699.716 Q -507.383 696.262 -504.310 693.790 Q -501.238 691.317 -498.948 689.962 Q -496.657 688.607 -494.595 688.547 Q -494.055 688.884 -495.320 691.337 Q -496.585 693.791 -498.303 695.485 Q -500.022 697.180 -503.659 697.449 Q -504.429 696.471 -502.545 695.201 Q -500.661 693.931 -498.476 692.571 Q -496.291 691.211 -494.841 690.354 Q -493.391 689.498 -492.865 689.257 Q -492.338 689.016 -491.370 688.878 Q -491.803 690.091 -492.147 690.364 Q -492.491 690.636 -492.800 690.924 Q -493.109 691.213 -493.429 691.622 Q -493.749 692.030 -495.384 693.526 Q -497.019 695.023 -499.049 696.381 Q -501.079 697.740 -504.724 697.716 Q -504.313 695.672 -504.287 696.323 Q -505.030 696.591 -502.084 694.625 Q -499.139 692.660 -497.527 691.678 Q -495.915 690.697 -494.476 690.357 Q -493.038 690.016 -491.743 690.399 Q -490.916 692.352 -495.771 694.649 Q -500.626 696.946 -519.919 701.782 Q -518.959 702.078 -515.377 701.192 Q -511.796 700.305 -504.888 694.236 Q -505.424 694.331 -508.535 697.499 Q -511.646 700.666 -515.451 703.107 Q -519.255 705.549 -521.513 706.642 Q -523.770 707.735 -527.856 709.108 Q -531.943 710.482 -539.523 710.919 Q -538.229 709.963 -534.970 708.299 Q -531.712 706.636 -528.279 703.721 Q -524.846 700.807 -520.903 698.944 Q -520.450 699.347 -523.825 703.417 Q -527.200 707.486 -532.245 711.122 Q -537.289 714.758 -544.278 716.748 Q -544.869 717.039 -543.569 716.333 Q -542.269 715.627 -539.916 714.342 Q -537.563 713.056 -533.424 710.259 Q -529.286 707.461 -523.964 704.429 Q -523.690 703.972 -525.888 707.457 Q -528.086 710.943 -530.507 713.059 Q -532.928 715.176 -534.794 716.503 Q -536.660 717.830 -540.844 717.607 Q -541.125 716.591 -541.035 716.748 Q -541.352 715.761 -537.470 713.671 Q -533.588 711.581 -530.802 709.636 Q -528.015 707.692 -524.354 704.492 Q -520.692 701.292 -516.075 699.135 Q -515.825 700.228 -518.321 703.944 Q -520.817 707.659 -523.231 710.458 Q -525.646 713.256 -527.199 714.553 Q -528.752 715.850 -529.603 716.577 Q -530.453 717.305 -532.509 718.424 Q -534.566 719.543 -537.331 719.806 Q -540.097 720.069 -541.927 720.082 Q -543.756 720.096 -544.647 719.498 Q -545.537 718.899 -545.913 718.047 Q -546.288 717.195 -546.331 717.067 Q -546.374 716.939 -546.131 716.567 Q -545.888 716.194 -545.413 715.708 Q -544.938 715.222 -545.033 715.313 Q -545.128 715.403 -544.383 715.022 Q -543.638 714.641 -519.391 700.000 Q -518.932 700.347 -521.962 704.581 Q -524.992 708.815 -527.610 711.836 Q -530.229 714.856 -534.322 717.562 Q -538.415 720.268 -541.154 721.549 Q -543.892 722.830 -548.122 723.632 Q -547.846 723.892 -541.502 717.568 Q -535.157 711.244 -523.891 699.860 Q -523.651 700.174 -526.768 700.946 Q -529.885 701.718 -530.777 701.922 "></path>
    <path id="STROKE_0abf3923-2df7-442a-acde-c402c05efce5" opacity="1.000" fill="none" stroke="#4a4745" stroke-width="10.200" stroke-opacity="1.000" stroke-linecap="round" stroke-linejoin="round" d="M -303.109 693.000 L -259.808 718.000 L -216.506 743.000 L -173.205 768.000 "></path>
    <path id="STROKE_04f53419-a6be-4d8b-b790-f67dd4c1c763" opacity="1.000" fill="none" stroke="#4a4745" stroke-width="10.200" stroke-opacity="1.000" stroke-linecap="round" stroke-linejoin="round" d="M -303.109 693.000 L -259.808 668.000 L -216.506 643.000 "></path>
    <path id="STROKE_f044d53d-43d2-4102-ba93-7a7a18877347" opacity="1.000" fill="none" stroke="#4a4745" stroke-width="10.200" stroke-opacity="1.000" stroke-linecap="round" stroke-linejoin="round" d="M -216.506 643.000 L -173.205 668.000 "></path>
    <path id="STROKE_b2944ffe-2890-490a-9f73-f18f923d8c7f" opacity="1.000" fill="none" stroke="#4a4745" stroke-width="10.200" stroke-opacity="1.000" stroke-linecap="round" stroke-linejoin="round" d="M -173.205 668.000 L -173.205 718.000 L -173.205 768.000 L -173.205 766.531 "></path>
    <path id="STROKE_a75d807e-c2a8-4544-8eb6-18b47617dc85" opacity="1.000" fill="none" stroke="#4a4745" stroke-width="10.200" stroke-opacity="1.000" stroke-linecap="round" stroke-linejoin="round" d="M -230.674 656.771 Q -229.579 656.638 -228.844 656.706 Q -228.109 656.774 -227.356 657.708 Q -226.602 658.642 -229.864 660.556 Q -233.127 662.470 -235.123 663.398 Q -237.119 664.326 -241.936 667.403 Q -246.753 670.481 -275.037 684.513 Q -275.177 684.101 -265.379 677.153 Q -255.580 670.205 -247.934 665.701 Q -240.287 661.196 -235.721 658.862 Q -231.155 656.528 -226.447 654.849 Q -226.163 655.783 -234.481 660.778 Q -242.798 665.774 -250.408 670.454 Q -258.017 675.134 -261.739 677.470 Q -265.462 679.806 -269.253 682.348 Q -273.045 684.889 -276.969 686.626 Q -276.695 686.218 -264.527 679.101 Q -252.359 671.984 -244.302 667.613 Q -236.246 663.242 -228.868 659.332 Q -221.491 655.423 -215.188 652.864 Q -213.674 653.901 -221.531 659.665 Q -229.389 665.430 -233.567 668.002 Q -237.744 670.574 -243.794 674.343 Q -249.844 678.111 -254.523 680.804 Q -259.201 683.498 -261.882 684.896 Q -264.563 686.294 -268.701 688.897 Q -272.838 691.499 -278.526 692.715 Q -280.206 691.458 -267.769 683.141 Q -255.331 674.823 -248.576 670.214 Q -241.820 665.604 -238.464 663.539 Q -235.108 661.474 -233.633 660.677 Q -232.159 659.879 -231.119 659.241 Q -230.079 658.603 -227.652 657.356 Q -225.225 656.108 -223.444 655.543 Q -221.664 654.978 -220.415 654.847 Q -219.166 654.716 -217.943 654.746 Q -216.720 654.776 -216.427 656.153 Q -216.134 657.529 -220.328 660.489 Q -224.522 663.448 -227.167 665.067 Q -229.812 666.687 -232.599 668.264 Q -235.386 669.841 -240.023 672.484 Q -244.661 675.126 -247.997 676.986 Q -251.334 678.845 -259.777 683.476 Q -268.220 688.107 -272.466 690.533 Q -276.712 692.958 -279.474 694.275 Q -282.235 695.591 -285.741 695.534 Q -286.360 695.181 -284.901 693.922 Q -283.441 692.662 -279.813 690.557 Q -276.186 688.452 -271.240 685.432 Q -266.294 682.413 -259.424 678.417 Q -260.073 678.644 -264.117 681.157 Q -268.161 683.671 -272.345 685.893 Q -276.528 688.115 -280.430 689.252 Q -284.332 690.389 -287.791 690.100 Q -287.891 690.034 -287.946 689.139 Q -288.001 688.244 -268.752 679.346 Q -269.155 678.977 -292.655 691.557 L -292.655 691.589 Q -292.325 692.323 -279.774 687.122 Q -279.352 688.280 -283.271 690.732 Q -287.190 693.184 -289.879 694.667 Q -292.568 696.150 -294.413 696.030 Q -295.248 695.466 -292.810 693.381 Q -290.372 691.296 -287.151 690.182 Q -283.930 689.069 -280.724 688.542 Q -277.518 688.015 -269.521 686.631 Q -261.524 685.247 -253.521 684.869 Q -252.989 685.979 -260.532 689.611 Q -268.075 693.242 -280.312 694.904 Q -280.411 693.594 -280.326 693.640 Q -280.241 693.686 -280.073 693.459 Q -279.906 693.232 -279.553 693.017 Q -279.200 692.802 -276.484 691.076 Q -273.767 689.350 -269.457 686.954 Q -265.147 684.558 -260.657 682.620 Q -256.167 680.682 -253.690 679.539 Q -251.214 678.395 -243.452 675.301 Q -235.690 672.207 -224.917 670.146 Q -224.162 671.643 -227.822 674.954 Q -231.482 678.266 -238.025 682.448 Q -244.568 686.630 -249.122 689.071 Q -253.675 691.512 -256.157 692.560 Q -258.638 693.609 -260.333 693.943 Q -262.027 694.277 -263.379 694.125 Q -264.731 693.972 -264.762 692.110 Q -264.794 690.247 -263.695 688.710 Q -262.596 687.172 -259.208 684.042 Q -255.819 680.912 -249.665 676.470 Q -243.512 672.028 -236.161 667.950 Q -228.811 663.872 -225.002 661.671 Q -221.193 659.470 -217.704 658.467 Q -214.216 657.463 -211.080 657.732 Q -210.146 659.586 -213.390 662.727 Q -216.635 665.868 -221.462 670.043 Q -226.289 674.219 -232.951 678.538 Q -239.612 682.856 -243.155 684.808 Q -246.697 686.761 -249.384 688.170 Q -252.071 689.579 -254.671 690.100 Q -257.272 690.622 -258.866 690.494 Q -260.461 690.367 -261.205 690.072 Q -261.949 689.776 -262.470 688.900 Q -262.992 688.024 -263.090 687.081 Q -263.189 686.138 -262.981 685.306 Q -262.773 684.474 -262.051 683.669 Q -261.329 682.864 -261.113 682.613 Q -260.897 682.362 -256.779 678.618 Q -252.662 674.875 -247.710 671.436 Q -242.758 667.998 -239.117 665.803 Q -235.475 663.608 -230.537 661.817 Q -225.599 660.027 -222.605 659.124 Q -219.612 658.220 -217.543 657.968 Q -215.474 657.716 -213.958 657.808 Q -212.442 657.900 -211.266 658.210 Q -210.091 658.520 -209.350 659.497 Q -208.610 660.474 -208.313 662.818 Q -208.017 665.162 -209.942 668.028 Q -211.867 670.893 -216.962 675.103 Q -222.057 679.313 -229.521 683.475 Q -236.985 687.638 -242.171 690.028 Q -247.357 692.418 -251.806 694.241 Q -256.256 696.065 -259.709 696.641 Q -263.163 697.217 -264.924 697.319 Q -266.685 697.421 -268.071 696.897 Q -269.457 696.374 -270.049 694.360 Q -270.640 692.345 -270.365 690.082 Q -270.089 687.818 -265.609 683.598 Q -261.128 679.378 -254.733 674.815 Q -248.337 670.253 -243.340 667.442 Q -238.343 664.631 -234.892 663.215 Q -231.441 661.800 -228.709 661.219 Q -225.977 660.638 -224.294 660.384 Q -222.611 660.130 -220.653 660.463 Q -218.695 660.795 -217.345 661.406 Q -215.996 662.018 -215.121 663.590 Q -214.246 665.163 -213.953 667.207 Q -213.661 669.251 -214.688 671.876 Q -215.716 674.501 -219.373 678.448 Q -223.030 682.396 -227.853 685.721 Q -232.675 689.047 -238.486 691.774 Q -244.296 694.500 -247.953 695.946 Q -251.609 697.392 -253.507 698.298 Q -255.405 699.204 -259.739 700.214 Q -264.074 701.224 -266.958 701.373 Q -269.842 701.521 -272.110 701.388 Q -274.378 701.256 -276.244 699.563 Q -278.110 697.870 -279.206 695.876 Q -280.303 693.881 -280.324 692.223 Q -280.346 690.565 -277.686 688.085 Q -275.026 685.605 -270.954 683.328 Q -266.883 681.051 -264.538 679.787 Q -262.192 678.523 -256.697 676.458 Q -251.201 674.393 -247.313 673.259 Q -243.426 672.126 -240.171 671.894 Q -236.916 671.661 -234.932 672.049 Q -232.948 672.437 -231.550 673.074 Q -230.152 673.711 -229.418 675.479 Q -228.684 677.247 -228.867 678.479 Q -229.051 679.711 -229.407 681.213 Q -229.762 682.714 -232.858 684.872 Q -235.953 687.030 -242.051 689.610 Q -248.149 692.191 -253.920 693.612 Q -259.690 695.034 -263.644 695.746 Q -267.597 696.458 -269.442 696.664 Q -271.286 696.869 -274.006 697.079 Q -276.725 697.288 -278.724 697.042 Q -280.722 696.796 -281.879 695.788 Q -283.035 694.780 -282.840 692.065 Q -282.644 689.351 -273.208 684.342 Q -263.772 679.334 -255.760 675.855 Q -247.747 672.376 -242.348 670.326 Q -236.949 668.276 -233.895 667.321 Q -230.840 666.366 -228.217 665.517 Q -225.594 664.669 -223.091 664.203 Q -220.588 663.736 -217.408 663.456 Q -214.229 663.175 -212.097 663.527 Q -209.965 663.879 -208.456 665.634 Q -206.946 667.389 -207.586 669.850 Q -208.225 672.311 -211.278 675.178 Q -214.331 678.045 -218.117 680.344 Q -221.903 682.642 -225.904 684.441 Q -229.905 686.240 -233.306 687.088 Q -236.707 687.936 -239.170 688.141 Q -241.634 688.345 -243.595 687.451 Q -245.555 686.557 -246.709 685.564 Q -247.863 684.571 -248.299 682.303 Q -248.736 680.035 -248.741 678.166 Q -248.745 676.297 -247.145 673.854 Q -245.545 671.410 -241.203 669.035 Q -236.860 666.659 -232.144 664.825 Q -227.427 662.991 -222.953 662.158 Q -218.479 661.325 -214.871 661.190 Q -211.263 661.056 -208.842 661.383 Q -206.421 661.710 -205.125 662.267 Q -203.830 662.823 -202.608 663.461 Q -201.386 664.098 -200.745 665.810 Q -200.104 667.522 -199.938 669.534 Q -199.773 671.546 -202.254 674.097 Q -204.734 676.648 -206.541 677.985 Q -208.348 679.322 -211.106 680.641 Q -213.864 681.959 -217.467 683.059 Q -221.070 684.159 -224.853 684.571 Q -228.635 684.982 -231.232 685.238 Q -233.829 685.494 -236.437 684.156 Q -239.045 682.817 -240.322 681.752 Q -241.599 680.688 -242.898 679.493 Q -244.196 678.298 -244.706 676.371 Q -245.216 674.444 -245.179 673.216 Q -245.141 671.988 -244.374 670.623 Q -243.607 669.258 -237.764 666.520 Q -231.922 663.782 -226.958 662.122 Q -221.995 660.462 -216.982 660.193 Q -211.970 659.923 -209.311 659.778 Q -206.652 659.633 -204.018 660.385 Q -201.383 661.137 -200.015 661.714 Q -198.647 662.291 -197.436 663.034 Q -196.226 663.776 -195.452 665.302 Q -194.678 666.827 -194.310 668.133 Q -193.943 669.439 -195.639 671.132 Q -197.334 672.824 -200.265 673.998 Q -203.195 675.173 -207.138 675.487 Q -211.082 675.802 -214.716 675.386 Q -218.349 674.971 -221.079 673.980 Q -223.809 672.990 -226.145 671.266 Q -228.481 669.542 -229.679 668.453 Q -230.877 667.364 -231.255 666.340 Q -231.634 665.316 -231.693 664.445 Q -231.751 663.573 -231.421 663.095 Q -231.091 662.617 -230.690 662.399 Q -230.289 662.181 -226.541 661.177 Q -222.793 660.173 -216.776 659.288 Q -210.759 658.404 -206.983 658.301 Q -203.207 658.199 -201.232 658.123 Q -199.257 658.048 -197.832 658.524 Q -196.407 659.000 -195.930 660.258 Q -195.452 661.517 -195.756 662.520 Q -196.059 663.524 -196.682 664.000 Q -197.305 664.476 -198.031 664.966 Q -198.758 665.457 -201.831 666.640 Q -204.905 667.823 -208.780 668.043 Q -212.655 668.264 -215.772 668.061 Q -218.889 667.857 -221.349 666.257 Q -223.810 664.658 -225.562 663.299 Q -227.315 661.940 -227.331 658.527 Q -227.057 658.231 -221.886 658.260 Q -216.715 658.288 -212.533 658.639 Q -208.351 658.989 -203.072 656.045 Q -203.072 655.944 -203.072 655.905 Q -204.223 655.900 -207.937 658.714 Q -211.650 661.529 -214.707 663.008 Q -217.764 664.487 -219.563 664.861 Q -221.363 665.234 -223.361 665.089 Q -225.360 664.944 -225.769 663.373 Q -226.178 661.802 -226.525 659.972 Q -226.873 658.143 -225.286 657.107 Q -223.700 656.070 -222.689 655.827 Q -221.677 655.583 -220.472 655.242 Q -219.268 654.901 -215.888 654.637 Q -212.508 654.374 -210.688 654.426 Q -208.868 654.477 -207.682 654.820 Q -206.496 655.163 -205.887 658.164 Q -206.416 659.173 -212.032 659.798 Q -217.648 660.423 -222.397 660.339 Q -227.146 660.255 -231.549 657.732 L -231.549 657.566 Q -231.595 657.590 -224.245 655.816 Q -216.896 654.042 -212.643 653.180 Q -208.389 652.318 -206.362 652.193 Q -204.335 652.069 -203.330 652.276 Q -202.325 652.484 -202.041 654.062 Q -201.757 655.641 -201.882 657.696 Q -202.007 659.751 -205.802 662.533 Q -209.596 665.315 -218.960 669.805 Q -228.325 674.294 -234.205 676.601 Q -240.085 678.908 -243.419 680.073 Q -246.754 681.238 -249.877 681.395 Q -248.834 680.548 -241.970 678.304 Q -235.105 676.059 -229.517 675.324 Q -223.929 674.590 -218.959 676.063 Q -218.302 677.199 -219.434 679.661 Q -220.567 682.123 -224.471 685.169 Q -228.375 688.216 -232.904 690.817 Q -237.434 693.419 -241.501 694.607 Q -245.568 695.794 -247.819 696.154 Q -250.070 696.514 -251.647 696.317 Q -253.225 696.120 -254.405 694.913 Q -255.585 693.705 -255.904 691.849 Q -256.224 689.993 -254.833 687.727 Q -253.441 685.460 -250.385 683.178 Q -247.330 680.896 -244.585 679.548 Q -241.841 678.200 -239.017 677.779 Q -236.192 677.359 -234.108 677.479 Q -232.023 677.599 -230.397 678.368 Q -228.771 679.137 -227.963 680.740 Q -227.155 682.344 -227.152 684.831 Q -227.148 687.318 -229.948 690.498 Q -232.748 693.678 -237.161 696.176 Q -241.574 698.674 -244.926 700.463 Q -248.278 702.252 -252.851 703.415 Q -257.424 704.578 -260.150 704.783 Q -262.876 704.989 -264.754 705.026 Q -266.631 705.064 -267.559 704.373 Q -268.487 703.682 -269.339 702.375 Q -270.192 701.068 -269.195 698.679 Q -268.199 696.291 -264.958 694.247 Q -261.717 692.203 -258.112 691.245 Q -254.507 690.286 -249.196 690.082 Q -243.885 689.877 -240.846 689.984 Q -237.807 690.092 -235.138 690.878 Q -232.469 691.663 -230.955 692.709 Q -229.440 693.755 -229.057 694.723 Q -228.674 695.691 -229.065 697.130 Q -229.455 698.569 -234.170 700.836 Q -238.886 703.102 -244.224 704.357 Q -249.562 705.613 -253.401 705.817 Q -257.239 706.022 -258.836 705.751 Q -260.433 705.480 -261.412 705.306 Q -262.390 705.131 -263.679 704.381 Q -264.967 703.631 -266.164 702.835 Q -267.361 702.039 -267.854 700.699 Q -268.348 699.359 -268.599 698.138 Q -268.850 696.917 -264.246 694.497 Q -259.643 692.077 -253.226 689.972 Q -246.809 687.867 -241.600 686.771 Q -236.391 685.674 -233.184 685.432 Q -229.976 685.190 -228.146 685.180 Q -226.315 685.170 -225.335 685.747 Q -224.354 686.323 -224.366 688.175 Q -224.378 690.026 -224.794 691.349 Q -225.209 692.673 -225.886 694.558 Q -226.562 696.442 -229.854 698.741 Q -230.447 698.071 -230.311 695.600 Q -230.176 693.129 -228.452 690.127 Q -226.729 687.125 -224.579 684.177 Q -222.428 681.229 -220.489 679.211 Q -218.550 677.193 -214.805 674.208 Q -211.059 671.223 -208.036 669.228 Q -205.013 667.234 -202.349 666.542 Q -199.684 665.849 -197.536 666.193 Q -195.389 666.536 -193.822 667.036 Q -192.255 667.536 -191.016 668.633 Q -189.778 669.730 -190.214 671.750 Q -190.650 673.770 -192.268 675.345 Q -193.886 676.921 -195.556 678.258 Q -197.227 679.595 -199.047 681.049 Q -200.868 682.504 -205.179 685.293 Q -209.490 688.082 -214.207 690.639 Q -218.925 693.195 -221.985 694.358 Q -225.046 695.520 -226.767 695.966 Q -228.488 696.412 -229.950 696.352 Q -231.411 696.291 -232.421 696.138 Q -233.430 695.986 -234.170 694.865 Q -234.911 693.743 -234.902 692.276 Q -234.893 690.809 -234.631 689.615 Q -234.369 688.422 -231.320 684.468 Q -228.270 680.514 -222.907 676.623 Q -217.544 672.732 -214.369 670.991 Q -211.195 669.249 -209.759 668.537 Q -208.323 667.825 -205.557 666.764 Q -202.790 665.703 -199.891 665.288 Q -196.991 664.873 -194.992 665.362 Q -192.993 665.851 -191.722 666.468 Q -190.451 667.085 -189.451 668.861 Q -188.452 670.637 -188.254 672.456 Q -188.056 674.275 -188.504 675.633 Q -188.951 676.991 -189.691 678.558 Q -190.430 680.126 -196.341 684.652 Q -202.251 689.179 -206.739 691.719 Q -211.226 694.260 -213.394 695.517 Q -215.561 696.775 -218.736 698.403 Q -221.910 700.031 -224.510 700.650 Q -227.110 701.270 -228.729 701.143 Q -230.348 701.016 -231.553 700.630 Q -232.758 700.244 -233.686 698.563 Q -234.614 696.883 -234.851 694.971 Q -235.089 693.060 -234.249 691.471 Q -233.410 689.882 -232.639 688.869 Q -231.869 687.856 -229.324 685.361 Q -226.779 682.867 -223.840 680.767 Q -220.902 678.668 -214.254 674.921 Q -207.607 671.175 -203.259 668.866 Q -198.910 666.557 -194.734 665.713 Q -190.558 664.869 -188.358 664.652 Q -186.157 664.435 -184.758 664.778 Q -183.360 665.121 -182.682 665.725 Q -182.004 666.328 -181.643 667.380 Q -181.282 668.433 -181.222 670.729 Q -181.162 673.026 -182.570 676.087 Q -183.978 679.148 -188.470 683.637 Q -192.962 688.126 -199.165 692.246 Q -205.368 696.366 -208.890 698.474 Q -212.413 700.583 -215.171 701.782 Q -217.929 702.980 -220.591 703.309 Q -223.253 703.637 -224.867 703.442 Q -226.480 703.247 -227.384 702.700 Q -228.287 702.153 -229.068 700.380 Q -229.849 698.607 -229.538 696.223 Q -229.227 693.839 -227.102 690.819 Q -224.977 687.798 -222.138 685.167 Q -219.298 682.536 -213.997 679.482 Q -208.696 676.428 -205.775 674.840 Q -202.854 673.252 -199.322 672.417 Q -195.789 671.582 -193.021 671.507 Q -190.252 671.433 -188.332 672.049 Q -186.411 672.665 -185.557 673.408 Q -184.703 674.152 -183.916 676.029 Q -183.130 677.906 -183.305 680.390 Q -183.481 682.874 -184.660 685.341 Q -185.839 687.808 -189.332 691.384 Q -192.825 694.960 -198.060 698.483 Q -203.295 702.006 -206.512 704.075 Q -209.730 706.144 -214.544 708.140 Q -219.357 710.137 -222.589 711.294 Q -225.821 712.452 -229.386 712.834 Q -232.951 713.216 -234.774 713.152 Q -236.597 713.089 -238.129 712.874 Q -239.661 712.659 -241.444 711.546 Q -243.227 710.433 -244.184 709.250 Q -245.142 708.067 -245.803 706.427 Q -246.465 704.787 -245.680 702.844 Q -244.896 700.901 -242.157 698.014 Q -239.418 695.127 -234.521 692.433 Q -229.625 689.739 -225.429 687.790 Q -221.234 685.842 -216.073 685.525 Q -210.912 685.208 -208.172 685.230 Q -205.433 685.252 -203.529 685.816 Q -201.625 686.380 -199.949 687.442 Q -198.274 688.504 -197.612 689.759 Q -196.950 691.013 -197.415 692.947 Q -197.880 694.881 -200.374 697.882 Q -202.867 700.882 -208.979 704.167 Q -215.091 707.451 -220.772 709.504 Q -226.454 711.557 -231.056 712.594 Q -235.657 713.632 -239.441 713.558 Q -243.224 713.484 -245.286 713.588 Q -247.348 713.693 -249.672 712.463 Q -251.996 711.233 -253.580 709.461 Q -255.164 707.689 -255.737 706.229 Q -256.310 704.769 -256.039 702.812 Q -255.767 700.854 -252.682 698.453 Q -249.598 696.052 -245.930 694.407 Q -242.262 692.762 -237.404 691.973 Q -232.547 691.185 -229.234 691.147 Q -225.921 691.109 -224.056 691.210 Q -222.191 691.310 -220.824 692.354 Q -219.457 693.399 -218.786 694.415 Q -218.115 695.431 -219.215 697.736 Q -220.314 700.040 -223.105 702.303 Q -225.896 704.566 -229.565 706.285 Q -233.234 708.005 -238.021 709.070 Q -242.807 710.135 -246.042 710.239 Q -249.276 710.343 -251.141 710.098 Q -253.007 709.853 -254.227 709.600 Q -255.446 709.346 -256.304 708.008 Q -257.161 706.670 -257.547 705.490 Q -257.932 704.309 -254.374 702.841 Q -250.815 701.372 -248.367 700.573 Q -245.918 699.773 -241.204 699.231 Q -236.491 698.688 -233.643 698.672 Q -230.795 698.656 -229.260 698.889 Q -227.725 699.123 -226.806 699.401 Q -225.888 699.680 -225.527 700.560 Q -225.166 701.440 -225.238 702.244 Q -225.310 703.047 -226.482 704.465 Q -227.653 705.883 -231.751 708.116 Q -235.850 710.349 -239.933 711.589 Q -244.016 712.829 -246.849 713.124 Q -249.683 713.418 -251.676 713.141 Q -253.670 712.863 -255.613 711.711 Q -257.556 710.560 -258.717 709.022 Q -259.878 707.484 -259.984 705.886 Q -260.089 704.288 -259.847 703.366 Q -259.606 702.444 -256.405 701.731 Q -253.204 701.018 -248.334 701.420 Q -243.463 701.823 -236.705 705.593 Q -235.740 705.666 -238.677 706.483 Q -241.614 707.299 -248.809 707.864 Q -256.005 708.428 -263.068 708.139 Q -262.846 707.352 -259.133 705.550 Q -255.420 703.748 -251.186 702.944 Q -246.951 702.140 -244.530 702.115 Q -242.108 702.090 -240.485 702.439 Q -238.862 702.787 -237.805 703.541 Q -236.748 704.295 -235.852 705.482 Q -234.956 706.670 -234.554 708.982 Q -234.152 711.294 -236.668 715.424 Q -237.174 714.604 -231.478 709.350 Q -225.782 704.096 -218.926 699.318 Q -212.070 694.541 -206.102 690.984 Q -200.135 687.427 -196.241 685.594 Q -192.347 683.761 -188.191 682.472 Q -184.034 681.183 -179.989 682.292 Q -178.938 683.861 -181.459 687.211 Q -183.981 690.561 -187.570 693.580 Q -191.159 696.600 -194.617 698.863 Q -198.075 701.126 -203.087 703.995 Q -208.099 706.864 -211.885 708.608 Q -215.670 710.351 -218.612 710.791 Q -221.554 711.230 -223.173 711.333 Q -224.792 711.435 -225.946 711.013 Q -227.100 710.591 -227.292 709.029 Q -227.483 707.467 -227.092 706.405 Q -226.701 705.343 -225.546 703.577 Q -224.391 701.810 -219.452 697.580 Q -214.513 693.350 -210.100 690.479 Q -205.687 687.608 -201.741 685.505 Q -197.795 683.402 -194.542 682.557 Q -191.289 681.713 -189.462 681.602 Q -187.635 681.490 -186.588 681.513 Q -185.542 681.535 -184.940 682.408 Q -184.338 683.281 -184.366 685.750 Q -184.394 688.220 -186.927 692.197 Q -189.459 696.173 -193.514 699.962 Q -197.568 703.750 -202.846 707.623 Q -208.123 711.496 -212.239 713.942 Q -216.355 716.388 -219.396 717.502 Q -222.436 718.616 -224.331 718.965 Q -226.226 719.313 -228.021 719.172 Q -229.817 719.031 -231.364 717.591 Q -232.911 716.151 -233.850 713.821 Q -234.790 711.491 -235.044 709.291 Q -235.299 707.090 -233.554 703.991 Q -231.810 700.893 -228.821 698.269 Q -225.832 695.646 -221.398 694.116 Q -216.965 692.585 -214.768 692.001 Q -212.572 691.417 -209.840 691.160 Q -207.108 690.903 -204.200 690.961 Q -201.292 691.019 -199.223 691.424 Q -197.155 691.829 -195.151 692.858 Q -193.148 693.886 -192.187 694.726 Q -191.227 695.566 -190.420 696.912 Q -189.613 698.259 -189.953 699.854 Q -190.294 701.449 -190.457 701.995 Q -190.621 702.541 -192.524 705.119 Q -194.428 707.696 -199.682 710.945 Q -204.936 714.193 -209.984 716.456 Q -215.032 718.718 -220.180 720.219 Q -225.329 721.719 -229.422 722.089 Q -233.514 722.458 -235.802 722.747 Q -238.089 723.036 -240.632 722.360 Q -243.175 721.683 -244.720 720.623 Q -246.265 719.564 -247.885 717.115 Q -249.506 714.666 -248.202 711.662 Q -246.898 708.658 -243.986 706.311 Q -241.074 703.963 -236.090 701.182 Q -231.106 698.400 -227.736 696.852 Q -224.365 695.303 -221.160 694.062 Q -217.956 692.821 -214.099 691.974 Q -210.242 691.127 -205.676 691.104 Q -201.109 691.082 -198.570 691.186 Q -196.031 691.291 -193.832 692.044 Q -191.632 692.798 -189.767 694.006 Q -187.903 695.213 -187.408 697.338 Q -186.913 699.462 -188.100 702.008 Q -189.288 704.554 -191.757 706.471 Q -194.227 708.387 -197.312 710.402 Q -200.396 712.416 -203.705 714.414 Q -207.014 716.412 -212.546 718.934 Q -218.077 721.455 -223.053 722.964 Q -228.030 724.473 -231.732 725.002 Q -235.435 725.531 -238.108 724.881 Q -240.780 724.232 -242.779 723.130 Q -244.778 722.028 -245.587 720.456 Q -246.397 718.883 -246.386 716.010 Q -246.376 713.136 -241.015 708.132 Q -235.654 703.127 -230.012 699.283 Q -224.370 695.438 -220.811 693.325 Q -217.251 691.211 -214.078 689.793 Q -210.904 688.375 -207.627 687.389 Q -204.350 686.403 -200.730 686.075 Q -197.110 685.747 -194.580 685.935 Q -192.051 686.124 -190.217 686.896 Q -188.382 687.668 -186.929 689.114 Q -185.476 690.560 -185.234 693.083 Q -184.992 695.606 -185.406 697.774 Q -185.821 699.941 -188.860 703.764 Q -191.900 707.587 -198.027 712.264 Q -204.154 716.941 -207.943 719.694 Q -211.731 722.446 -214.636 723.733 Q -217.542 725.020 -220.132 725.172 Q -222.723 725.324 -224.344 725.088 Q -225.964 724.852 -227.335 723.357 Q -228.706 721.862 -229.526 719.177 Q -230.346 716.491 -230.198 713.874 Q -230.051 711.257 -228.483 707.491 Q -226.916 703.725 -223.542 699.746 Q -220.168 695.768 -215.590 692.255 Q -211.012 688.743 -207.533 686.808 Q -204.054 684.873 -200.215 684.075 Q -196.377 683.276 -193.118 683.379 Q -189.859 683.483 -187.387 683.991 Q -184.915 684.499 -183.206 685.748 Q -181.497 686.998 -180.494 690.201 Q -179.492 693.404 -179.474 696.217 Q -179.455 699.030 -181.055 702.447 Q -182.655 705.864 -185.330 709.132 Q -188.005 712.400 -193.383 715.718 Q -198.762 719.036 -202.070 720.940 Q -205.378 722.844 -208.671 723.407 Q -211.964 723.970 -213.857 724.010 Q -215.750 724.049 -217.850 723.348 Q -219.949 722.646 -221.661 721.134 Q -223.372 719.622 -224.339 717.063 Q -225.305 714.505 -225.265 712.399 Q -225.224 710.292 -225.197 708.886 Q -225.169 707.480 -222.651 703.865 Q -220.132 700.250 -214.211 696.281 Q -208.290 692.312 -204.924 690.215 Q -201.559 688.117 -198.470 686.778 Q -195.382 685.440 -191.978 685.049 Q -188.574 684.658 -186.750 684.770 Q -184.926 684.882 -183.972 685.089 Q -183.018 685.296 -182.339 686.541 Q -181.660 687.787 -181.372 688.846 Q -181.084 689.906 -181.197 692.533 Q -181.309 695.160 -181.283 696.791 Q -181.256 698.422 -182.657 702.710 Q -184.058 706.999 -186.736 711.484 Q -189.414 715.968 -193.401 720.159 Q -197.387 724.350 -200.226 726.778 Q -203.064 729.206 -205.480 730.185 Q -207.897 731.165 -209.796 731.499 Q -211.695 731.834 -213.810 731.089 Q -215.925 730.344 -217.547 728.827 Q -219.168 727.311 -220.251 725.748 Q -221.334 724.185 -221.721 723.282 Q -222.109 722.379 -222.518 721.519 Q -222.927 720.660 -223.171 717.996 Q -223.414 715.331 -223.007 712.793 Q -222.600 710.254 -220.880 707.917 Q -219.160 705.580 -216.072 703.810 Q -212.983 702.039 -207.251 701.588 Q -201.518 701.136 -197.060 701.498 Q -192.602 701.859 -189.742 702.826 Q -186.882 703.793 -185.236 704.396 Q -183.590 705.000 -182.763 706.602 Q -181.935 708.205 -181.911 710.638 Q -181.887 713.072 -183.843 716.444 Q -185.800 719.816 -189.183 722.732 Q -192.567 725.648 -196.942 727.770 Q -201.318 729.892 -204.799 731.213 Q -208.280 732.534 -211.865 732.779 Q -215.451 733.023 -218.263 732.672 Q -221.076 732.321 -223.577 730.500 Q -226.079 728.678 -227.711 726.192 Q -229.343 723.705 -230.106 721.515 Q -230.869 719.324 -230.622 717.053 Q -230.375 714.781 -230.065 713.703 Q -229.755 712.625 -228.448 710.464 Q -227.140 708.304 -223.779 706.171 Q -220.417 704.037 -215.632 702.762 Q -210.847 701.487 -206.736 701.220 Q -202.625 700.952 -200.207 700.821 Q -197.789 700.689 -194.499 701.823 Q -191.209 702.957 -189.245 703.809 Q -187.280 704.660 -185.852 706.107 Q -184.424 707.554 -183.808 709.935 Q -183.191 712.316 -184.404 715.452 Q -185.616 718.589 -188.654 721.248 Q -191.692 723.907 -196.025 726.096 Q -200.359 728.285 -205.256 729.163 Q -210.154 730.041 -213.284 729.905 Q -216.414 729.770 -218.034 729.935 Q -219.654 730.099 -222.772 729.188 Q -225.890 728.277 -227.593 727.377 Q -229.297 726.477 -230.333 725.890 Q -231.368 725.302 -232.017 724.001 Q -232.665 722.700 -232.509 721.127 Q -232.352 719.555 -229.511 716.992 Q -226.670 714.428 -221.886 712.639 Q -217.103 710.849 -212.719 710.269 Q -208.335 709.689 -204.109 709.508 Q -199.883 709.326 -195.881 710.172 Q -191.880 711.018 -189.421 712.089 Q -186.961 713.161 -185.516 714.257 Q -184.071 715.354 -183.571 717.365 Q -183.071 719.376 -183.705 721.585 Q -184.340 723.794 -187.141 726.918 Q -189.943 730.042 -194.111 732.099 Q -198.279 734.156 -201.460 735.102 Q -204.641 736.049 -207.203 736.095 Q -209.765 736.141 -211.375 735.779 Q -212.986 735.418 -214.727 734.155 Q -216.469 732.892 -217.568 731.261 Q -218.668 729.629 -218.987 727.517 Q -219.306 725.405 -218.524 722.980 Q -217.742 720.555 -215.229 717.969 Q -212.715 715.382 -209.517 713.456 Q -206.320 711.529 -202.284 710.709 Q -198.248 709.890 -194.219 710.199 Q -190.190 710.508 -187.214 711.858 Q -184.237 713.209 -182.576 714.061 Q -180.916 714.914 -180.202 716.709 Q -179.489 718.504 -179.472 720.611 Q -179.455 722.717 -181.894 725.859 Q -184.333 729.001 -188.600 731.732 Q -192.868 734.463 -196.778 736.313 Q -200.689 738.163 -203.474 739.457 Q -206.259 740.751 -209.034 740.937 Q -211.808 741.124 -213.536 740.993 Q -215.263 740.862 -216.622 739.772 Q -217.981 738.681 -218.431 736.802 Q -218.882 734.923 -218.948 733.375 Q -219.014 731.827 -216.447 728.736 Q -213.879 725.646 -211.541 723.725 Q -209.203 721.804 -206.793 720.305 Q -204.383 718.805 -202.319 717.525 Q -200.255 716.245 -196.604 716.005 Q -192.953 715.764 -190.780 715.755 Q -188.607 715.746 -186.218 716.682 Q -183.828 717.618 -182.085 718.822 Q -180.342 720.027 -179.833 722.331 Q -179.324 724.636 -179.385 726.638 Q -179.447 728.639 -181.414 731.575 Q -183.381 734.511 -186.981 737.334 Q -190.581 740.156 -194.596 741.698 Q -198.611 743.239 -200.715 743.932 Q -202.818 744.625 -204.768 744.655 Q -206.718 744.684 -208.070 744.512 Q -209.422 744.340 -210.763 743.202 Q -212.104 742.064 -212.627 740.654 Q -213.151 739.245 -213.441 737.329 Q -213.730 735.413 -211.546 732.775 Q -209.362 730.136 -207.450 728.508 Q -205.538 726.880 -202.159 725.129 Q -198.780 723.378 -194.721 722.835 Q -190.661 722.292 -188.486 722.256 Q -186.311 722.219 -184.398 722.426 Q -182.484 722.633 -181.105 723.449 Q -179.725 724.266 -179.329 725.828 Q -178.933 727.391 -178.818 728.175 Q -178.703 728.960 -180.099 731.606 Q -181.496 734.252 -183.495 736.660 Q -185.494 739.069 -187.869 740.982 Q -190.243 742.896 -192.147 744.082 Q -194.052 745.269 -195.794 745.538 Q -197.536 745.806 -198.573 745.749 Q -199.610 745.692 -200.238 745.198 Q -200.865 744.704 -201.092 742.905 Q -201.319 741.105 -200.555 739.083 Q -199.791 737.060 -197.357 734.417 Q -194.924 731.774 -191.810 730.002 Q -188.697 728.230 -186.364 727.523 Q -184.032 726.816 -182.012 726.796 Q -179.992 726.777 -178.534 727.388 Q -177.076 727.999 -176.504 729.357 Q -175.932 730.715 -175.846 731.976 Q -175.760 733.237 -176.911 735.378 Q -178.062 737.520 -180.707 739.971 Q -183.353 742.423 -186.193 744.408 Q -189.032 746.392 -192.012 747.235 Q -194.992 748.077 -196.579 748.050 Q -198.166 748.024 -199.067 748.036 Q -199.967 748.048 -200.643 746.716 Q -201.320 745.384 -200.817 743.653 Q -200.315 741.923 -197.457 739.582 Q -194.599 737.241 -191.676 735.486 Q -188.754 733.731 -185.961 733.188 Q -183.167 732.646 -181.742 732.520 Q -180.317 732.393 -179.374 733.028 Q -178.430 733.663 -177.918 734.368 Q -177.406 735.072 -177.097 736.118 Q -176.788 737.164 -177.552 739.072 Q -178.317 740.980 -180.497 742.823 Q -182.677 744.665 -185.911 746.718 Q -189.146 748.771 -195.721 750.242 Q -196.729 749.428 -193.030 745.812 Q -189.332 742.196 -186.834 740.456 Q -184.336 738.716 -182.828 738.246 Q -181.320 737.775 -179.765 737.694 Q -178.211 737.613 -177.598 739.812 Q -176.984 742.012 -177.251 743.258 Q -177.517 744.503 -178.713 746.313 Q -179.909 748.122 -182.369 749.586 Q -184.830 751.049 -186.664 751.496 Q -188.498 751.942 -189.814 751.912 Q -191.130 751.883 -191.453 751.154 Q -191.776 750.426 -192.112 748.320 Q -192.448 746.214 -190.114 745.249 Q -187.780 744.285 -185.977 744.210 Q -184.174 744.135 -182.743 744.121 Q -181.313 744.107 -179.951 744.686 Q -178.590 745.265 -178.185 746.087 Q -177.779 746.909 -177.596 747.727 Q -177.413 748.545 -178.782 749.861 Q -180.151 751.177 -183.003 752.255 Q -185.855 753.333 -187.603 753.599 Q -189.351 753.865 -190.533 753.868 Q -191.714 753.871 -191.884 752.315 Q -192.054 750.759 -190.531 749.489 Q -189.008 748.218 -187.974 747.462 Q -186.940 746.705 -184.671 746.267 Q -182.402 745.829 -180.592 745.949 Q -178.782 746.070 -177.948 746.677 Q -177.114 747.283 -176.876 748.178 Q -176.638 749.073 -176.514 750.066 Q -176.389 751.059 -176.935 751.792 Q -177.482 752.526 -178.032 752.974 Q -178.582 753.421 -179.800 754.090 Q -181.018 754.758 -182.120 755.134 Q -183.222 755.510 -184.655 755.677 Q -186.087 755.844 -186.641 755.670 Q -187.194 755.495 -187.392 755.237 Q -187.590 754.978 -187.879 754.479 Q -188.168 753.981 -187.567 752.677 Q -186.965 751.374 -185.826 750.879 Q -184.687 750.384 -184.056 750.214 Q -183.424 750.043 -182.683 749.901 Q -181.942 749.759 -180.730 749.809 Q -179.518 749.859 -178.607 749.888 Q -177.696 749.917 -176.948 750.802 Q -176.200 751.686 -176.455 753.295 Q -176.710 754.904 -177.649 755.609 Q -178.587 756.314 -179.082 756.836 Q -179.576 757.358 -180.236 757.418 Q -180.895 757.478 -181.506 757.262 Q -182.117 757.045 -181.986 757.278 Q -181.855 757.510 -182.225 756.202 Q -182.595 754.894 -182.540 752.526 Q -181.645 752.199 -180.033 752.890 Q -178.422 753.580 -177.548 754.210 Q -176.675 754.841 -176.783 755.377 Q -176.891 755.914 -176.855 756.504 Q -176.819 757.094 -176.835 757.061 Q -176.851 757.027 -176.821 756.887 Q -176.792 756.747 -176.946 757.598 L -176.983 757.598 Q -176.983 757.697 -176.983 757.735 Q -176.983 757.773 -176.983 758.384 Q -176.983 758.994 -176.983 758.921 Q -176.983 758.953 -176.983 759.048 Q -176.883 759.430 -177.543 758.227 Q -178.203 757.025 -178.440 756.592 "></path>
    <path id="STROKE_d7a308c9-515d-4d36-aff5-195619dbbf17" opacity="1.000" fill="none" stroke="#4a4745" stroke-width="10.200" stroke-opacity="1.000" stroke-linecap="round" stroke-linejoin="round" d="M -511.502 698.868 Q -511.516 699.461 -512.350 701.322 Q -513.183 703.182 -519.564 705.706 Q -525.944 708.230 -532.336 709.723 Q -538.727 711.217 -546.865 711.059 Q -546.419 711.950 -542.477 712.138 Q -538.535 712.325 -535.509 711.643 Q -532.483 710.961 -529.921 710.221 Q -527.359 709.482 -511.903 702.647 Q -511.047 703.325 -522.023 709.989 Q -532.999 716.653 -558.325 727.145 Q -558.034 726.900 -547.424 720.787 Q -536.813 714.674 -517.332 706.745 Q -517.416 706.397 -520.607 708.199 Q -523.797 710.002 -527.261 711.868 Q -530.725 713.733 -532.686 714.686 Q -534.647 715.639 -537.834 717.166 Q -541.021 718.693 -546.625 721.276 Q -552.229 723.859 -557.351 725.975 Q -562.472 728.092 -565.684 729.754 Q -568.897 731.416 -571.570 733.368 Q -571.782 733.412 -565.597 729.524 Q -559.411 725.635 -546.081 719.993 Q -546.455 721.361 -577.199 738.522 Q -577.154 739.345 -570.410 735.412 Q -563.667 731.480 -547.667 725.019 Q -547.653 725.119 -553.665 728.282 Q -559.677 731.446 -565.222 734.177 Q -570.768 736.907 -575.669 737.936 Q -576.327 737.775 -570.366 734.812 Q -564.405 731.850 -547.867 727.336 Q -548.010 727.839 -554.230 731.246 Q -560.450 734.653 -564.979 736.735 Q -569.509 738.816 -574.813 739.451 Q -574.698 739.345 -574.253 739.068 Q -573.808 738.790 -573.727 738.756 Q -573.646 738.722 -572.814 738.269 Q -571.982 737.816 -569.911 736.505 Q -567.839 735.195 -564.928 733.566 Q -562.017 731.937 -556.020 728.801 Q -550.024 725.664 -542.620 721.343 Q -535.216 717.023 -529.494 713.146 Q -523.771 709.270 -519.791 705.294 Q -519.738 705.294 -521.832 705.294 Q -521.138 705.059 -516.071 701.948 Q -511.004 698.838 -508.714 696.834 Q -506.425 694.829 -503.673 694.069 Q -500.921 693.310 -498.177 693.136 Q -495.433 692.963 -493.028 692.944 Q -493.950 694.071 -494.389 694.186 Q -494.828 694.301 -496.555 695.194 Q -498.282 696.087 -501.156 697.266 Q -504.030 698.445 -508.587 700.000 Q -508.049 699.542 -505.098 697.880 Q -502.148 696.218 -497.278 693.926 Q -492.408 691.634 -485.084 689.807 Q -484.767 689.365 -485.406 690.268 Q -486.044 691.171 -492.725 693.794 Q -499.405 696.418 -509.060 698.537 Q -510.018 699.347 -489.001 693.014 L -489.001 692.976 Q -488.634 692.944 -488.885 692.935 Q -489.136 692.925 -489.923 693.015 Q -490.711 693.105 -491.370 693.332 Q -492.029 693.560 -492.847 693.838 Q -493.665 694.115 -494.667 694.645 Q -495.670 695.175 -499.278 696.314 Q -502.887 697.453 -504.981 697.285 Q -507.075 697.118 -507.403 696.819 "></path>
    <path id="STROKE_47ce7aeb-d6c3-40b5-8b72-b2a85b937109" opacity="1.000" fill="none" stroke="#4a4745" stroke-width="10.200" stroke-opacity="1.000" stroke-linecap="round" stroke-linejoin="round" d="M -500.113 706.740 L -476.314 693.000 L -433.013 668.000 L -389.711 643.000 "></path>
    <path id="STROKE_af745dc6-04b0-43b6-89d7-5e232001101a" opacity="1.000" fill="none" stroke="#4a4745" stroke-width="10.200" stroke-opacity="1.000" stroke-linecap="round" stroke-linejoin="round" d="M -259.808 704.429 L -259.808 718.000 L -303.109 693.000 L -346.410 668.000 L -389.711 643.000 "></path>
    <path id="STROKE_4dd45fa7-2663-486d-b280-62a6e546361e" opacity="1.000" fill="none" stroke="#4a4745" stroke-width="10.200" stroke-opacity="1.000" stroke-linecap="round" stroke-linejoin="round" d="M -606.218 757.480 L -606.218 768.000 L -606.218 818.000 L -606.218 868.000 L -606.218 918.000 L -606.218 944.280 "></path>
    <path id="STROKE_4058f27b-ebf2-4fec-b15c-a35590043914" opacity="1.000" fill="none" stroke="#4a4745" stroke-width="10.200" stroke-opacity="1.000" stroke-linecap="round" stroke-linejoin="round" d="M -173.205 768.000 L -173.205 818.000 L -173.205 868.000 L -173.205 918.000 L -173.205 951.812 "></path>
    <path id="STROKE_b5eee99b-6e04-46c1-9459-e1141d1c61d2" opacity="1.000" fill="none" stroke="#4a4745" stroke-width="10.200" stroke-opacity="1.000" stroke-linecap="round" stroke-linejoin="round" d="M -389.711 1093.000 L -433.013 1068.000 L -476.314 1043.000 L -519.615 1018.000 L -562.917 993.000 L -606.218 968.000 L -606.218 941.775 "></path>
    <path id="STROKE_681de290-72ee-4a1c-bda5-2dcb36ea3246" opacity="1.000" fill="none" stroke="#4a4745" stroke-width="10.200" stroke-opacity="1.000" stroke-linecap="round" stroke-linejoin="round" d="M -389.711 1093.000 L -346.410 1068.000 L -303.109 1043.000 L -259.808 1018.000 L -216.506 993.000 L -173.205 968.000 L -173.205 943.493 "></path>
  </g>
</svg>